<?xml version="1.0" encoding="UTF-8" standalone="no"?>
<!-- Created with Inkscape (http://www.inkscape.org/) -->

<svg
   width="199.67654mm"
   height="75.141663mm"
   viewBox="0 0 199.67654 75.141663"
   version="1.1"
   id="svg5"
   inkscape:version="1.1.2 (b8e25be833, 2022-02-05)"
   sodipodi:docname="PPO stat.svg"
   xmlns:inkscape="http://www.inkscape.org/namespaces/inkscape"
   xmlns:sodipodi="http://sodipodi.sourceforge.net/DTD/sodipodi-0.dtd"
   xmlns="http://www.w3.org/2000/svg"
   xmlns:svg="http://www.w3.org/2000/svg">
  <sodipodi:namedview
     id="namedview7"
     pagecolor="#505050"
     bordercolor="#ffffff"
     borderopacity="1"
     inkscape:pageshadow="0"
     inkscape:pageopacity="0"
     inkscape:pagecheckerboard="1"
     inkscape:document-units="mm"
     showgrid="false"
     fit-margin-top="0"
     fit-margin-left="0"
     fit-margin-right="0"
     fit-margin-bottom="0"
     inkscape:zoom="0.7198092"
     inkscape:cx="-65.989709"
     inkscape:cy="13.197942"
     inkscape:window-width="1920"
     inkscape:window-height="1001"
     inkscape:window-x="-9"
     inkscape:window-y="-9"
     inkscape:window-maximized="1"
     inkscape:current-layer="g17" />
  <defs
     id="defs2">
    <clipPath
       clipPathUnits="userSpaceOnUse"
       id="clipPath41">
      <path
         d="M 0,-1.6666667 H 1862 V 353.33333 H 0 Z"
         clip-rule="evenodd"
         id="path39" />
    </clipPath>
    <clipPath
       clipPathUnits="userSpaceOnUse"
       id="clipPath55">
      <path
         d="M 0,-1.6666667 H 1862 V 353.33333 H 0 Z"
         clip-rule="evenodd"
         id="path53" />
    </clipPath>
    <clipPath
       clipPathUnits="userSpaceOnUse"
       id="clipPath83">
      <path
         d="M 0,-1.6666667 H 1862 V 353.33333 H 0 Z"
         clip-rule="evenodd"
         id="path81" />
    </clipPath>
    <clipPath
       clipPathUnits="userSpaceOnUse"
       id="clipPath107">
      <path
         d="M 0,-1.6666667 H 1862 V 353.33333 H 0 Z"
         clip-rule="evenodd"
         id="path105" />
    </clipPath>
    <clipPath
       clipPathUnits="userSpaceOnUse"
       id="clipPath121">
      <path
         d="M 53.342883,76.666667 H 1811.991 V 313.33333 H 53.342883 Z"
         clip-rule="evenodd"
         id="path119" />
    </clipPath>
    <clipPath
       clipPathUnits="userSpaceOnUse"
       id="clipPath137">
      <path
         d="M 53.342883,76.666667 H 1811.991 V 313.33333 H 53.342883 Z"
         clip-rule="evenodd"
         id="path135" />
    </clipPath>
    <clipPath
       clipPathUnits="userSpaceOnUse"
       id="clipPath157">
      <path
         d="M 0,-1.6666667 H 1862 V 353.33333 H 0 Z"
         clip-rule="evenodd"
         id="path155" />
    </clipPath>
    <clipPath
       clipPathUnits="userSpaceOnUse"
       id="clipPath177">
      <path
         d="M 0,-1.6666667 H 1862 V 353.33333 H 0 Z"
         clip-rule="evenodd"
         id="path175" />
    </clipPath>
    <clipPath
       clipPathUnits="userSpaceOnUse"
       id="clipPath311">
      <path
         d="M 0,-1.6666667 H 1862 V 353.33333 H 0 Z"
         clip-rule="evenodd"
         id="path309" />
    </clipPath>
    <clipPath
       clipPathUnits="userSpaceOnUse"
       id="clipPath421">
      <path
         d="M 0,-1.6666667 H 1862 V 353.33333 H 0 Z"
         clip-rule="evenodd"
         id="path419" />
    </clipPath>
    <clipPath
       clipPathUnits="userSpaceOnUse"
       id="clipPath499">
      <path
         d="M 0,-1.6666667 H 1862 V 353.33333 H 0 Z"
         clip-rule="evenodd"
         id="path497" />
    </clipPath>
    <clipPath
       clipPathUnits="userSpaceOnUse"
       id="clipPath605">
      <path
         d="M 0,-1.6666667 H 1862 V 353.33333 H 0 Z"
         clip-rule="evenodd"
         id="path603" />
    </clipPath>
    <clipPath
       clipPathUnits="userSpaceOnUse"
       id="clipPath621">
      <path
         d="M 85.015219,105 H 256.71262 v 30 H 85.015219 Z"
         clip-rule="evenodd"
         id="path619" />
    </clipPath>
    <clipPath
       clipPathUnits="userSpaceOnUse"
       id="clipPath637">
      <path
         d="M 85.015219,105 H 256.71262 v 30 H 85.015219 Z"
         clip-rule="evenodd"
         id="path635" />
    </clipPath>
    <clipPath
       clipPathUnits="userSpaceOnUse"
       id="clipPath643">
      <path
         d="M 85.015219,106.66667 H 138.3581 v 30 H 85.015219 Z"
         clip-rule="evenodd"
         id="path641" />
    </clipPath>
    <clipPath
       clipPathUnits="userSpaceOnUse"
       id="clipPath659">
      <path
         d="M 85.015219,105 H 256.71262 v 30 H 85.015219 Z"
         clip-rule="evenodd"
         id="path657" />
    </clipPath>
    <clipPath
       clipPathUnits="userSpaceOnUse"
       id="clipPath675">
      <path
         d="M 85.015219,130 H 256.71262 v 30 H 85.015219 Z"
         clip-rule="evenodd"
         id="path673" />
    </clipPath>
    <clipPath
       clipPathUnits="userSpaceOnUse"
       id="clipPath691">
      <path
         d="M 85.015219,130 H 256.71262 v 30 H 85.015219 Z"
         clip-rule="evenodd"
         id="path689" />
    </clipPath>
    <clipPath
       clipPathUnits="userSpaceOnUse"
       id="clipPath697">
      <path
         d="M 85.015219,131.66667 H 138.3581 v 30 H 85.015219 Z"
         clip-rule="evenodd"
         id="path695" />
    </clipPath>
    <clipPath
       clipPathUnits="userSpaceOnUse"
       id="clipPath717">
      <path
         d="M 85.015219,130 H 256.71262 v 30 H 85.015219 Z"
         clip-rule="evenodd"
         id="path715" />
    </clipPath>
    <clipPath
       clipPathUnits="userSpaceOnUse"
       id="clipPath733">
      <path
         d="M 0,-1.6666667 H 1862 V 353.33333 H 0 Z"
         clip-rule="evenodd"
         id="path731" />
    </clipPath>
  </defs>
  <g
     inkscape:label="Layer 1"
     inkscape:groupmode="layer"
     id="layer1"
     transform="translate(-5.8393278,-65.717534)">
    <g
       id="g17"
       transform="matrix(0.21166666,0,0,0.21166666,-59.221316,126.73486)">
      <g
         id="g19">
        <g
           id="g21" />
      </g>
      <g
         id="g23"
         transform="matrix(0.50663467,0,0,1,307.37313,-288.27084)">
        <g
           id="g25" />
        <g
           id="g27">
          <g
             id="g29"
             transform="scale(1.6669651,1.6666667)">
            <path
               d="M 0,0 H 1117 V 213 H 0 Z"
               style="fill:#808080;fill-opacity:1;fill-rule:nonzero;stroke:none"
               id="path31" />
          </g>
        </g>
        <g
           id="g33"
           transform="scale(1.6669651,1.6666667)" />
      </g>
      <g
         id="g35">
        <g
           id="g37"
           clip-path="url(#clipPath41)">
          <g
             id="g43"
             transform="scale(1.6669651,1.6666667)" />
        </g>
      </g>
      <g
         id="g45">
        <g
           id="g47"
           transform="scale(1.6669651,1.6666667)" />
      </g>
      <g
         id="g49"
         transform="matrix(0.50663467,0,0,1,307.37313,-288.27084)">
        <g
           id="g51"
           clip-path="url(#clipPath55)">
          <g
             id="g57"
             transform="scale(1.6669651,1.6666667)">
            <path
               d="M 32,188 V 47"
               style="fill:none;stroke:#c8c8c8;stroke-width:1;stroke-linecap:square;stroke-linejoin:bevel;stroke-miterlimit:10;stroke-dasharray:1, 2;stroke-dashoffset:0;stroke-opacity:1"
               id="path59" />
            <path
               d="M 204.95082,188 V 47"
               style="fill:none;stroke:#c8c8c8;stroke-width:1;stroke-linecap:square;stroke-linejoin:bevel;stroke-miterlimit:10;stroke-dasharray:1, 2;stroke-dashoffset:0;stroke-opacity:1"
               id="path61" />
            <path
               d="M 377.90164,188 V 47"
               style="fill:none;stroke:#c8c8c8;stroke-width:1;stroke-linecap:square;stroke-linejoin:bevel;stroke-miterlimit:10;stroke-dasharray:1, 2;stroke-dashoffset:0;stroke-opacity:1"
               id="path63" />
            <path
               d="M 550.85246,188 V 47"
               style="fill:none;stroke:#c8c8c8;stroke-width:1;stroke-linecap:square;stroke-linejoin:bevel;stroke-miterlimit:10;stroke-dasharray:1, 2;stroke-dashoffset:0;stroke-opacity:1"
               id="path65" />
            <path
               d="M 723.80328,188 V 47"
               style="fill:none;stroke:#c8c8c8;stroke-width:1;stroke-linecap:square;stroke-linejoin:bevel;stroke-miterlimit:10;stroke-dasharray:1, 2;stroke-dashoffset:0;stroke-opacity:1"
               id="path67" />
            <path
               d="M 896.7541,188 V 47"
               style="fill:none;stroke:#c8c8c8;stroke-width:1;stroke-linecap:square;stroke-linejoin:bevel;stroke-miterlimit:10;stroke-dasharray:1, 2;stroke-dashoffset:0;stroke-opacity:1"
               id="path69" />
            <path
               d="M 1069.7049,188 V 47"
               style="fill:none;stroke:#c8c8c8;stroke-width:1;stroke-linecap:square;stroke-linejoin:bevel;stroke-miterlimit:10;stroke-dasharray:1, 2;stroke-dashoffset:0;stroke-opacity:1"
               id="path71" />
          </g>
        </g>
      </g>
      <g
         id="g73">
        <g
           id="g75"
           transform="scale(1.6669651,1.6666667)" />
      </g>
      <g
         id="g77"
         transform="matrix(0.50663467,0,0,1,307.37313,-288.27084)">
        <g
           id="g79"
           clip-path="url(#clipPath83)">
          <g
             id="g85"
             transform="scale(1.6669651,1.6666667)">
            <path
               d="M 32,164.2257 H 1086"
               style="fill:none;stroke:#c8c8c8;stroke-width:1;stroke-linecap:square;stroke-linejoin:bevel;stroke-miterlimit:10;stroke-dasharray:1, 2;stroke-dashoffset:0;stroke-opacity:1"
               id="path87" />
            <path
               d="M 32,137.53508 H 1086"
               style="fill:none;stroke:#c8c8c8;stroke-width:1;stroke-linecap:square;stroke-linejoin:bevel;stroke-miterlimit:10;stroke-dasharray:1, 2;stroke-dashoffset:0;stroke-opacity:1"
               id="path89" />
            <path
               d="M 32,110.84447 H 1086"
               style="fill:none;stroke:#c8c8c8;stroke-width:1;stroke-linecap:square;stroke-linejoin:bevel;stroke-miterlimit:10;stroke-dasharray:1, 2;stroke-dashoffset:0;stroke-opacity:1"
               id="path91" />
            <path
               d="M 32,84.153853 H 1086"
               style="fill:none;stroke:#c8c8c8;stroke-width:1;stroke-linecap:square;stroke-linejoin:bevel;stroke-miterlimit:10;stroke-dasharray:1, 2;stroke-dashoffset:0;stroke-opacity:1"
               id="path93" />
            <path
               d="M 32,57.463238 H 1086"
               style="fill:none;stroke:#c8c8c8;stroke-width:1;stroke-linecap:square;stroke-linejoin:bevel;stroke-miterlimit:10;stroke-dasharray:1, 2;stroke-dashoffset:0;stroke-opacity:1"
               id="path95" />
          </g>
        </g>
      </g>
      <g
         id="g97">
        <g
           id="g99"
           transform="scale(1.6669651,1.6666667)" />
      </g>
      <g
         id="g101">
        <g
           id="g103"
           clip-path="url(#clipPath107)">
          <g
             id="g109"
             transform="scale(1.6669651,1.6666667)" />
        </g>
      </g>
      <g
         id="g111">
        <g
           id="g113"
           transform="scale(1.6669651,1.6666667)" />
      </g>
      <g
         id="g115"
         transform="matrix(0.50663467,0,0,1,307.37313,-288.27084)">
        <g
           id="g117"
           clip-path="url(#clipPath121)">
          <g
             id="g123"
             transform="scale(1.6669651,1.6666667)">
            <path
               d="m 35.459016,188 3.459017,-0.11845 3.459016,-0.0787 3.459016,-0.0302 3.459017,-0.11655 3.459016,-0.34722 3.459017,-0.15111 3.459016,-0.0702 3.459016,-0.23107 3.459017,-0.41458 3.459016,0.34674 3.459017,-0.68625 3.459016,-0.14151 3.459017,-0.18616 3.459016,0.0483 3.459016,-0.0995 3.459017,-0.43303 3.459016,-0.43845 3.459016,-0.14399 3.459019,-0.20778 3.45901,1.7102 3.45902,-0.16933 3.45902,-0.46258 3.45901,-0.39255 3.45902,-0.12389 3.45902,-0.70441 3.45901,0.0762 3.45902,-0.66526 3.45901,-1.18649 3.45902,-0.40698 3.45902,0.65079 3.45901,-2.0565 3.45902,0.34989 3.45902,-0.35251 3.45901,-2.80372 3.45902,1.5414 3.45902,-1.22185 3.45901,0.51669 3.45902,-4.67432 3.45901,4.67196 3.45902,-0.53968 3.45902,1.04901 3.45901,-2.32938 3.45902,1.57171 3.45902,-1.53969 3.45901,-2.87281 3.45902,6.05553 3.45902,-2.51892 3.45901,-2.16991 3.45902,6.13244 3.45902,-2.82023 3.45901,-0.55822 3.45902,-1.58071 3.45901,1.30094 3.45902,-2.47487 3.45902,2.17257 3.45901,-5.16297 3.45902,4.88486 3.45902,1.90191 3.45901,-4.70328 3.45902,0.93964 3.45902,0.76234 3.45901,-1.20565 3.45902,-2.02422 3.45901,3.20353 3.45902,-3.81103 3.45902,-1.23674 3.45901,-3.20985 3.45902,-0.92959 3.45902,-2.21905 3.45901,1.13592 3.45902,-3.73587 3.45902,4.80112 3.45901,-4.81619 3.45902,-3.14782 3.45901,6.90525 3.45902,-13.3506 3.45902,8.0382 3.45901,2.92067 3.45902,1.25417 3.45902,-9.86479 3.45901,5.8403 3.45902,8.91864 3.45902,-3.78663 3.45901,2.0627 3.45902,-7.27034 3.45902,4.10371 3.45901,2.2292 3.45902,-12.13155 3.45901,8.67963 3.45902,-6.48853 3.45902,-10.43015 3.45901,0.009 3.45902,19.33653 3.45902,-27.40397 3.45901,16.42092 3.45902,-0.0885 3.45902,2.16593 3.45901,-18.63648 3.45902,-0.005 3.45901,-5.33852 3.45902,0.11372 3.45902,0.0101 3.45901,9.68431 3.45902,15.98069 3.45902,-25.81223 3.45901,-6.2391 3.45902,28.26411 3.45902,-8.44942 3.45901,-3.65249 3.45902,-9.69891 3.45902,19.29024 3.45901,-25.77639 3.45902,11.65941 3.45901,-5.26675 3.45902,-24.6068 3.45902,-13.843408 3.45901,43.793168 3.45902,-11.64384 3.45902,22.82177 3.45901,7.24109 3.45902,-1.98881 3.45902,7.18851 3.45901,-9.6661 3.45902,6.52776 3.45901,3.12394 3.45902,2.64338 3.45902,-4.09668 3.45901,-3.63421 3.45902,0.003 3.45902,-2.08264 3.45901,-2.45689 3.45902,-19.13995 3.45902,25.52341 3.45901,-1.87088 3.45902,3.59125 3.45901,-14.08287 3.45902,-13.14017 3.45902,9.58497 3.45901,6.9535 3.45902,-0.048 3.45902,-6.83714 3.45901,-4.2581 3.45902,16.24651 3.45902,-28.01291 3.45901,0.10495 3.45902,19.54127 3.45902,-19.47673 3.45901,-0.0232 3.45902,11.51791 3.45901,-43.584039 3.45902,43.554659 3.45902,-5.29636 3.45901,-24.61347 3.45902,10.32273 3.45902,27.73072 3.45901,-38.26828 3.45902,-32.603741 3.45902,90.132981 3.45901,-16.07881 3.45902,-11.22461 3.45901,-11.74949 3.45902,35.27511 3.45902,-43.0663 3.45901,33.45702 3.45902,2.32154 3.45902,-35.74297 3.45901,35.81678 3.45902,-27.87578 3.45902,6.18997 3.45901,5.25403 3.45902,-11.5911 3.45902,0.0403 3.45901,-0.0371 3.45902,-18.26515 3.45902,18.19384 3.45901,-18.37949 3.45902,18.4725 3.45901,6.3684 3.45902,-24.86979 3.45902,-13.550096 3.45901,13.781146 3.45902,-0.055 3.45902,10.32198 3.45901,-24.118339 3.45902,24.020139 3.45901,0.0403 3.45902,-0.0322 3.45902,-24.03439 3.45901,38.45809 3.45902,-57.492171 3.45902,32.844261 3.45901,0.0668 3.45902,10.24756 3.45902,-10.34928 3.45901,-0.087 3.45902,-13.712961 3.45901,-19.164551 3.45902,43.187852 3.45902,-10.28023 3.45901,-13.725698 3.45902,24.029408 3.45902,-43.385104 3.45901,32.971344 3.45902,-32.9011 3.45902,43.25554 3.45901,-43.51659 3.45902,33.21421 3.45902,-32.956722 3.45901,0.170421 3.45902,32.814341 3.45901,-0.0808 3.45902,-62.071604 3.45902,72.515534 3.45901,-43.212443 3.45902,-0.310378 3.45902,32.964651 3.45901,-32.900873 3.45902,-29.030237 3.45902,61.94736 3.45901,-32.740504 3.45902,19.143469 3.45901,13.821605 3.45902,-62.398883 3.45902,48.367515 3.45901,-19.242292 3.45902,19.324805 3.45902,-47.711033 3.45901,47.875013 3.45902,-48.371918 3.45902,48.16593 3.45901,-19.276331 3.45902,-28.809969 3.45902,0.178156 3.45901,61.824697 3.45902,-33.189855 3.45902,-29.160505 3.45901,48.387267 3.45902,-19.291434 3.45901,-28.796559 3.45902,61.853056 3.45902,-0.0734 3.45901,-62.278506 3.45902,48.580902 3.45902,-19.619833 3.45901,-28.765371 3.45902,-0.234617 3.45901,0.392045 3.45902,72.38725 3.45902,-43.508766 3.45901,-28.768479 3.45902,28.93825 3.45902,-0.09439 3.45901,0.17661 3.45902,19.159123 3.45902,-0.08636 3.45901,-19.286938 3.45902,19.104449 3.45901,-48.330967 3.45902,29.011909 3.45902,0.286958 3.45901,-29.37278 3.45902,48.401601 3.45902,-19.037571 3.45901,-29.278982 3.45902,0.193715 3.45902,28.874675 3.45901,19.370373 3.45902,-19.33502 3.45902,-29.093132 3.45901,48.425021 3.45902,-48.214324 3.45901,-0.215105 3.45902,29.333033 3.45902,19.064743 3.45901,-19.107663 3.45902,-0.330722 3.45902,-28.858867 3.45901,48.321099 3.45903,-19.329985 3.459,0.273538 3.459,0.09933 3.459,-0.188596 3.459,19.24324 3.4591,-48.296588 3.459,29.099522 3.459,-0.09372 3.459,19.331916 3.459,-48.784427 3.4591,0.657826 3.459,92.156661 3.459,-11.83679 3.459,-32.370058 3.459,-18.952033 3.459,19.176417 3.4591,0.05568 3.459,0.0829 3.459,13.744154 3.459,-33.112732 3.459,43.379382 3.459,-72.018643 3.4591,72.214943 3.459,-24.199849 3.459,-0.05138 3.459,0.17411"
               style="fill:none;stroke:#ffdc32;stroke-width:2;stroke-linecap:square;stroke-linejoin:bevel;stroke-miterlimit:10;stroke-dasharray:none;stroke-opacity:1"
               id="path125" />
          </g>
        </g>
      </g>
      <g
         id="g127">
        <g
           id="g129"
           transform="scale(1.6669651,1.6666667)" />
      </g>
      <g
         id="g131"
         transform="matrix(0.50663467,0,0,1,307.37313,-288.27084)">
        <g
           id="g133"
           clip-path="url(#clipPath137)">
          <g
             id="g139"
             transform="scale(1.6669651,1.6666667)" />
          <g
             id="g141">
            <g
               id="g143">
              <path
                 d="m 60.581218,292.55458 5.766059,10.85692 -1.472275,0.78164 1.217793,-1.13811 5.766059,6.16757 -1.217793,1.13811 0.318916,-1.63588 5.766059,1.12369 -0.318915,1.63588 -0.234403,-1.65011 5.766059,-0.81879 0.04367,-0.006 5.766059,-0.66401 0.844333,0.1225 5.766059,2.45713 -0.653593,1.53322 -0.754248,-1.4863 5.766059,-2.92504 0.955222,-0.16821 5.766062,0.70016 0.4814,0.13388 5.76606,2.58657 -0.68238,1.52063 -1.56103,-0.58468 5.76606,-15.38926 3.01744,-0.22612 5.76606,10.35366 -1.45641,0.8108 0.26464,-1.64553 5.76606,0.92701 -0.26464,1.64553 -1.26236,-1.08849 5.76606,-6.68472 2.45908,-0.0717 5.76606,5.94527 -1.19672,1.16024 0.57102,-1.56583 5.76606,2.10201 -0.57103,1.56583 -0.13033,-1.66157 5.76606,-0.45212 0.13033,1.66157 -0.27614,-1.64364 5.76606,-0.96841 0.27614,1.64364 -1.27945,-1.06834 5.76607,-6.90303 1.27945,1.06834 -1.66088,-0.14224 5.76606,-67.3045 3.32197,0.002 5.76606,68.45393 -1.66109,0.13986 0.96854,-1.35648 5.76606,4.11554 -0.96854,1.35648 -0.88159,-1.41451 5.76606,-3.5924 1.61631,-0.0815 5.76606,2.83073 -0.73472,1.49605 -0.27855,-1.64323 5.76606,-0.97708 0.77762,0.053 5.76606,1.80896 -0.49907,1.59022 -0.95796,-1.36397 5.76606,-4.04822 2.1129,0.16215 5.76606,5.53915 -1.15494,1.20182 -1.59134,-0.49629 5.76605,-18.48199 3.06602,-0.28081 5.76606,10.93798 -1.47467,0.77711 -1.65808,-0.17188 5.76606,-55.60543 3.31247,-0.0324 5.76606,46.67674 -1.65439,0.2043 -1.6651,-0.079 5.76606,-121.54196 3.33036,0.004 5.76606,127.31377 -1.66526,0.0754 0.43776,-1.60817 5.76606,1.56903 0.42206,0.18032 5.76606,3.47097 -0.85982,1.42785 0.78394,-1.47086 5.76606,3.07212 -0.78394,1.47086 -0.33032,-1.63362 5.76606,-1.16548 0.33031,1.63362 -1.55804,-0.59257 5.76606,-15.15529 2.54148,-0.75316 5.76605,4.21221 0.47015,0.52986 5.76606,10.26935 -1.45358,0.81586 1.18356,-1.17365 5.76606,5.81261 -1.18356,1.17366 -1.45206,-0.81857 5.76605,-10.22483 2.09558,-0.71891 5.76605,2.4125 -0.64351,1.53747 0.6216,-1.54646 5.76606,2.31677 -0.6216,1.54647 -1.14668,-1.20969 5.76605,-5.46381 1.14669,1.20969 -1.5825,-0.52379 5.76606,-17.41435 3.13401,-0.0857 5.76606,14.67307 -1.55151,0.60948 -1.52348,-0.67646 5.76605,-12.98131 3.12766,0.22332 5.76606,20.40524 -1.60417,0.45314 -0.44755,-1.60547 5.76606,-1.6068 0.0402,-0.0107 5.76606,-1.45266 0.40731,1.61615 -0.93224,-1.38167 5.76606,-3.88905 2.36289,0.52624 5.76605,9.63987 -1.43064,0.85543 -1.05981,-1.28647 5.76606,-4.74847 0.35448,-0.22366 5.76606,-2.69216 0.70533,1.51012 -1.26786,-1.08207 5.76606,-6.75362 2.70334,0.23478 5.76606,9.76527 -1.43548,0.8473 -1.61319,-0.41992 5.76606,-22.14342 3.17627,-0.15924 5.76606,15.55658 -1.56308,0.57915 1.06676,-1.28069 5.76606,4.80116 -1.06677,1.2807 -1.23194,-1.12278 5.76606,-6.32442 2.52943,0.0764 5.76605,7.14714 -1.29748,1.04639 1.11216,-1.2415 5.76606,5.16349 -1.11216,1.2415 -0.70675,-1.50945 5.76606,-2.69883 1.80485,0.25551 5.76606,5.04756 -1.0981,1.25395 -0.42129,-1.61256 5.76605,-1.5059 0.089,-0.0207 5.76606,-1.17267 0.33227,1.63322 -0.40828,-1.6159 5.76606,-1.45634 0.40828,1.6159 -1.58244,-0.52398 5.76606,-17.40731 2.81551,-0.59756 5.76606,6.33718 0.21235,0.29131 5.76606,10.03506 -1.44542,0.83023 1.30041,-1.04274 5.76607,7.18836 -1.30042,1.04274 -1.42793,-0.85996 5.76606,-9.57087 1.64256,-0.79283 5.76606,0.7485 0.91321,0.42552 5.76606,5.29701 -1.12784,1.22727 0.11903,-1.66241 5.76606,0.41271 -0.11903,1.66241 -1.54024,-0.6374 5.76606,-13.92829 3.04706,-0.0754 5.76606,12.18508 -1.50682,0.71279 -0.0958,-1.66391 5.76606,-0.33194 0.0958,1.66391 -1.64144,-0.29054 5.76605,-32.56447 3.21894,-0.24815 5.76606,16.87938 -1.57749,0.53868 1.34136,-0.98953 5.76606,7.8134 -1.34137,0.98954 -1.66639,-0.0435 5.76606,-220.788737 3.33282,0.0013 5.76607,227.586737 -1.66644,0.0422 -1.04925,-1.29508 5.76606,-4.66991 1.68482,-0.24569 5.76606,2.37764 -0.63557,1.54077 -1.56879,-0.5635 5.76606,-16.04695 3.11864,-0.0502 5.76606,14.55669 -1.54985,0.61369 1.32419,-1.0124 5.76606,7.53917 -1.32419,1.01239 -1.36162,-0.96147 5.76606,-8.16288 0.13919,-0.17165 5.76606,-6.21831 2.4022,-0.0443 5.76606,5.77531 -1.17977,1.17746 0.77779,-1.47412 5.76606,3.04123 -0.77779,1.47413 -0.89139,-1.40837 5.76606,-3.64815 2.32345,0.55529 5.76605,9.67607 -1.43205,0.85307 0.54904,-1.57368 5.76606,2.011 -0.54904,1.57367 -0.84938,-1.43408 5.76606,-3.41391 1.14071,-0.20694 5.76607,1.02331 -0.29133,1.64101 -0.20123,-1.65448 5.76607,-0.701 0.62756,0.0433 5.76606,1.52521 -0.42634,1.61123 -0.14032,-1.66075 5.76606,-0.48701 0.14032,1.66075 -1.22475,-1.13062 5.76606,-6.24384 2.22263,-0.20443 5.76606,4.30827 -0.99788,1.33505 -1.49938,-0.72832 5.76606,-11.86611 1.79079,-0.91267 5.76606,1.0236 0.65073,0.26607 5.76606,3.94965 0.49656,0.53312 5.76606,9.85092 -1.43871,0.84182 -0.55983,-1.56987 5.76606,-2.05551 0.55983,1.56987 -1.07851,-1.27082 5.76606,-4.89176 2.39041,0.24256 5.76606,7.35397 -1.3119,1.02825 0.28003,-1.64298 5.76606,0.98242 -0.28003,1.64299 -1.07172,-1.27656 5.76606,-4.8391 2.26398,0.11173 5.76605,5.89972 -1.19225,1.16482 -0.0298,-1.6664 5.76606,-0.10301 0.0298,1.6664 -1.24349,-1.10998 5.76606,-6.45733 1.74557,-0.47929 5.76606,1.82096 -0.50208,1.58927 -0.53865,-1.57725 5.76606,-1.96848 0.53865,1.57726 -1.36577,-0.95557 5.76606,-8.23833 0.0392,-0.0537 5.76606,-7.57595 1.45935,-0.65209 5.76606,0.4607 -0.13279,1.66137 -0.37164,-1.62471 5.76606,-1.31846 1.74611,0.68171 5.76606,8.40121 -1.37447,0.94301 -0.36462,-1.6263 5.76606,-1.29229 0.6664,-0.0128 5.76606,1.06124 1.0859,0.71565 5.76606,8.66147 -1.38768,0.92347 -1.55274,-0.60633 5.76606,-14.76082 3.04211,-0.14222 5.76606,11.46855 -1.48938,0.74855 -0.28575,-1.642 5.76606,-1.00309 0.28727,-0.0247 5.76606,0.005 0.35802,0.0392 5.76606,1.27339 0.90923,0.54643 5.76606,6.76515 -1.26877,1.08101 -1.57135,-0.55633 5.76605,-16.28062 1.94021,-1.06903 5.76606,1.30805 -0.36885,1.62535 0.10561,-1.66331 5.76606,0.36596 1.36752,0.88329 5.76606,10.88555 -1.47313,0.78003 0.14656,-1.66021 5.76606,0.50883 -0.14656,1.66021 -1.62728,-0.36151 5.76606,-25.94578 3.13491,-0.34958 5.76606,12.22057 0.0577,0.138 5.76606,15.74353 -1.56532,0.57309 0.81938,-1.45142 5.76606,3.25399 -0.81938,1.45142 -0.50714,-1.58766 5.76606,-1.84116 0.11507,-0.0323 5.76606,-1.39506 0.39207,1.61991 -1.14072,-1.21533 5.76606,-5.41014 2.44341,0.17544 5.76606,7.22069 -1.30269,1.03989 -0.31751,-1.63615 5.76606,-1.11854 1.22024,0.23503 5.76606,3.71371 -0.90273,1.40112 -0.13735,-1.661 5.76606,-0.47662 0.27202,-2.2e-4 5.76606,0.4673 -0.13467,1.66121 -1.45223,-0.81827 5.76606,-10.22958 2.00702,-0.75338 5.76606,2.0347 -0.5548,1.57165 0.091,-1.66418 5.76606,0.31498 1.15906,0.56154 5.76606,6.53429 -1.25001,1.10265 -0.25082,-1.64769 5.76606,-0.87744 0.73777,0.0537 5.76606,1.76086 -0.48695,1.59397 -1.56343,-0.57821 5.76606,-15.5855 2.71478,-0.62705 5.76606,5.50618 -1.15135,1.20526 -1.16025,-1.1967 5.76606,-5.58847 2.57842,0.32073 5.76606,9.33183 -1.41817,0.87596 -0.91194,-1.39515 5.76606,-3.76763 0.89665,-0.27145 5.76606,-0.0529 0.90793,0.25903 5.76606,3.65535 -0.89264,1.40757 0.71744,-1.50441 5.76606,2.74881 -0.71744,1.5044 -0.88604,-1.41173 5.76606,-3.61764 2.1907,0.37425 5.766,7.24812 -1.3046,1.03748 -0.3978,-1.61851 5.766,-1.41677 0.4292,-0.0479 5.7661,0.10839 0.3286,0.039 5.766,1.27496 0.093,0.0233 5.7661,1.62726 -0.4529,1.60399 -1.1038,-1.24892 5.7661,-5.09428 1.1038,1.24893 -1.5196,-0.6851 5.766,-12.78511 3.0735,0.0816 5.7661,14.84071 -1.5539,0.6035 0.3977,-1.61854 5.7661,1.41622 -0.3977,1.61855 -1.3678,-0.95267 5.766,-8.2757 2.6027,-0.16689 5.7661,6.35769 -1.2349,1.11956 -1.2377,-1.11639 5.766,-6.39054 1.893,-0.4161 5.7661,2.46462 0.4735,0.30607 5.7661,5.30509 -1.1288,1.22642 -1.246,-1.10713 5.766,-6.48714 2.4316,-0.0645 5.766,5.83236 -1.1855,1.17165 -1.346,-0.98318 5.766,-7.89122 2.6686,-0.0314 5.766,7.51324 -1.3225,1.0146 -0.3715,-1.62475 5.7661,-1.318 0.3715,1.62475 -0.7436,-1.49168 5.7661,-2.87322 0.3806,-0.13501 5.766,-1.28612 1.6677,0.58929 5.7661,7.24926 -1.3047,1.03738 0.072,-1.66511 5.7661,0.24976 -0.072,1.66511 -0.356,-1.62821 5.766,-1.26046 0.3561,1.6282 -1.0718,-1.2765 5.7661,-4.8396 1.9903,-0.11427 5.7661,3.80713 -0.9186,1.39077 -0.2295,-1.6508 5.7661,-0.80133 0.731,0.0614 5.7661,1.81885 -0.5016,1.58943 -0.4452,-1.60612 5.7661,-1.59771 0.64,-0.0491 5.766,0.67827 -0.1948,1.65525 -0.4473,-1.60555 5.7661,-1.60579 0.6588,-0.0477 5.766,0.73734 -0.2114,1.6532 -0.089,-1.6643 5.7661,-0.30775 0.089,1.6643 -0.9714,-1.35442 5.766,-4.1341 2.0989,0.12675 5.7661,5.29334 -1.1275,1.22766 -1.3921,-0.91673 5.766,-8.75325 2.746,-0.0557 5.7661,8.02457 -1.3538,0.97244 0.1429,-1.66053 5.7661,0.49627 -0.143,1.66052 0.05,-1.66593 5.7661,0.17156 0.1933,0.017 5.7661,0.84925 -0.243,1.64888 -0.9879,-1.34241 5.766,-4.24207 0.3242,-0.1864 5.766,-2.50277 1.0056,-0.10246 5.766,1.20751 0.1344,0.034 5.7661,1.71807 -0.4761,1.59725 0.2956,-1.64024 5.7661,1.03898 0.043,0.008 5.7661,1.19524 -0.3384,1.63196 -0.094,-1.664 5.766,-0.32642 0.5067,0.0491 5.766,1.47214 -0.4124,1.61484 -1.4664,-0.79261 5.7661,-10.66376 2.9448,0.0227 5.7661,11.0691 -1.4785,0.76988 -0.049,-1.66594 5.766,-0.17115 0.049,1.66593 -0.7974,-1.4636 5.766,-3.14035 1.7686,0.10902 5.7661,4.13254 -0.9712,1.35459 -0.4522,-1.60417 5.7661,-1.62483 0.4522,1.60417 -0.7137,-1.5062 5.766,-2.73115 1.5967,0.0925 5.766,3.60002 -0.8829,1.41368 -0.6229,-1.54593 5.766,-2.3225 0.5623,-0.11964 5.7661,-0.20982 0.061,1.66556 -0.23,-1.65072 5.7661,-0.80315 0.23,1.65073 -1.0008,-1.33293 5.7661,-4.32736 2.2067,0.18228 5.766,6.04101 -1.2059,1.15065 -0.3771,-1.62347 5.7661,-1.33877 0.3376,-0.0427 5.7661,-0.13628 0.039,1.6662 -0.5901,-1.55874 5.766,-2.18215 1.4706,0.14351 5.7661,3.58587 -0.8805,1.41523 -0.8153,-1.45372 5.7661,-3.23265 1.8251,0.12769 5.7661,4.38959 -1.0099,1.32603 -0.5063,-1.58793 5.7661,-1.83778 0.154,-0.0411 5.7661,-1.24654 0.6841,-0.004 5.7661,1.17113 -0.3319,1.6333 0.172,-1.65778 5.766,0.59782 -0.1719,1.65777 -0.5031,-1.58895 5.7661,-1.82494 0.074,-0.0215 5.7661,-1.5361 0.9234,0.0188 5.7661,1.7898 -0.4942,1.59172 0.089,-1.6643 5.766,0.30763 -0.089,1.6643 -0.7934,-1.46575 5.766,-3.12027 1.5451,-0.0219 5.7661,2.9125 -0.7517,1.4876 0.2733,-1.64412 5.7661,0.95799 0.035,0.006 5.766,1.08416 -0.308,1.63796 0.1654,-1.65844 5.7661,0.57502 -0.1655,1.65844 -0.3734,-1.62431 5.766,-1.32509 0.059,-0.0125 5.766,-1.10644 0.2607,-0.029 5.766,-0.18539 0.054,1.66581 -0.6891,-1.51759 5.766,-2.61731 1.3775,-3.4e-4 5.7661,2.61391 -0.6884,1.51793 -0.01,-1.66666 5.7661,-0.0191 0.01,1.66666 -1.337,-0.99549 5.7661,-7.74101 2.7765,0.15511 5.766,9.87351 -1.4395,0.84038 -0.5348,-1.57856 5.766,-1.95289 1.0654,-0.001 5.766,1.93535 -0.5305,1.58001 0.3283,-1.63402 5.7661,1.15817 -0.3283,1.63402 -0.4997,-1.59003 5.7661,-1.81138 0.5063,-0.0766 5.766,0.023 -0.01,1.66666 -1.2671,-1.08294 5.766,-6.74435 1.3025,-0.58336 5.766,0.12214 1.1873,0.53336 5.7661,6.2202 -1.2226,1.13294 0.2777,-1.64337 5.7661,0.97423 -0.2778,1.64337 -0.9459,-1.37235 5.7661,-3.97292 1.5548,-0.17914 5.7661,2.26225 -0.609,1.55149 0.1137,-1.66279 5.7661,0.39397 -0.1137,1.66279 -0.6776,-1.52275 5.766,-2.56498 1.1163,-0.0852 5.766,1.5722 0.4591,0.20359 5.7661,3.68442 -0.8977,1.40436 -0.4743,-1.59777 5.766,-1.71113 0.4743,1.59778 -0.5558,-1.57128 5.7661,-2.03906 0.5558,1.57128 -0.6945,-1.51512 5.766,-2.64217 1.7648,0.23734 5.7661,4.82788 -1.0703,1.27779 -0.8876,-1.41074 5.766,-3.62665 0.8877,1.41074 -0.9474,-1.37136 5.7661,-3.98187 2.1917,0.26235 5.7661,6.46752 -1.2444,1.109 -0.031,-1.66637 5.766,-0.10805 0.025,-2.9e-4 5.7661,-0.0206 0.3934,0.0456 5.7661,1.37786 -0.3875,1.62101 -1.3253,-1.011 5.7661,-7.55563 2.487,-0.18427 5.766,5.60222 -1.1617,1.19526 0.4841,-1.59484 5.766,1.74954 -0.484,1.59485 -0.6345,-1.54125 5.7661,-2.37258 0.163,-0.0574 5.7661,-1.69963 0.5029,-0.0677 5.766,0.1089 0.8471,0.24999 5.7661,3.57548 -0.8786,1.41637 -0.92,-1.38983 5.766,-3.81562 1.5258,-0.16292 5.766,2.24844 -0.6057,1.55275 -0.9406,-1.37597 5.766,-3.94041 0.9407,1.37597 -1.1885,-1.16867 5.766,-5.86177 1.1885,1.16866 -1.3207,-1.01685 5.766,-7.48676 0.2596,-0.26844 5.766,-4.75925 2.6064,0.65997 5.7661,14.24337 -1.5452,0.6253 -1.4675,-0.79051 5.766,-10.70035 2.8274,-0.17343 5.7661,8.13142 -1.3599,0.96395 0.5271,-1.58117 5.766,1.92135 0.8028,0.57618 5.7661,7.62705 -1.3298,1.00498 0.5625,-1.56889 5.7661,2.06674 -0.5626,1.56889 -0.1297,-1.66161 5.7661,-0.44998 0.1297,1.66161 -0.5275,-1.58103 5.7661,-1.92294 0.3842,-0.0795 5.766,-0.49727 0.2889,2e-4 5.7661,0.50563 -0.1457,1.66029 -1.5145,-0.69631 5.7661,-12.5369 2.9516,-0.14819 5.7661,9.80869 -1.4371,0.84451 1.1116,-1.24195 5.7661,5.15924 -1.1117,1.24195 0.1702,-1.65796 5.7661,0.5917 -0.1702,1.65796 -0.061,-1.66557 5.766,-0.2098 1.6659,-0.0606 0.1212,3.33113 -1.6658,0.0606 -5.7661,0.2098 -0.2308,-0.008 -5.7661,-0.59169 -0.9414,-0.416 -5.7661,-5.15924 -0.3255,-0.39744 -5.766,-9.8087 1.4371,-0.84451 1.5145,0.69631 -5.766,12.5369 -1.6602,0.96398 -5.7661,-0.50563 0.1457,-1.66029 0.1432,1.6605 -5.766,0.49727 -0.1433,-1.6605 0.5275,1.58104 -5.7661,1.92293 -0.3977,0.0806 -5.7661,0.44998 -0.6922,-0.0927 -5.7661,-2.06674 -0.7673,-0.56391 -5.766,-7.62705 1.3298,-1.00499 -0.5271,1.58117 -5.766,-1.92134 -0.8328,-0.61722 -5.7661,-8.13143 1.3599,-0.96395 1.4675,0.79052 -5.7661,10.70035 -3.0127,-0.16521 -5.766,-14.24337 1.5452,-0.6253 1.0612,1.28528 -5.7661,4.75926 -1.0612,-1.28529 1.3208,1.01685 -5.7661,7.48677 -0.1323,0.15182 -5.766,5.86177 -0.2479,0.2073 -5.766,3.94042 -1.5464,0.17678 -5.766,-2.24844 0.6057,-1.55275 0.92,1.38983 -5.7661,3.81562 -1.7986,0.0265 -5.7661,-3.57547 0.8786,-1.41638 -0.031,1.66637 -5.7661,-0.1089 0.031,-1.66637 0.4714,1.59863 -5.7661,1.69964 -0.4714,-1.59864 0.6344,1.54125 -5.766,2.37258 -1.1185,0.0536 -5.7661,-1.74954 -0.6776,-0.39958 -5.7661,-5.60222 1.1617,-1.19527 1.3253,1.011 -5.7661,7.55564 -1.7127,0.61001 -5.7661,-1.37785 0.3875,-1.62101 0.01,1.66665 -5.7661,0.0206 -0.01,-1.66666 0.031,1.66637 -5.7661,0.10806 -1.2756,-0.55737 -5.766,-6.46752 1.2443,-1.109 0.9474,1.37135 -5.7661,3.98187 -0.06,0.0394 -5.7661,3.62665 -1.9578,-0.13295 -5.7661,-4.82789 1.0703,-1.27778 0.6945,1.51512 -5.7661,2.64217 -0.1386,0.0562 -5.7661,2.03905 -0.082,0.0265 -5.7661,1.71112 -1.372,-0.19341 -5.7661,-3.68442 0.8977,-1.40436 -0.4386,1.60794 -5.766,-1.5722 0.4386,-1.60795 0.6776,1.52276 -5.7661,2.56497 -0.7912,0.14004 -5.7661,-0.39398 -0.4953,-0.1113 -5.766,-2.26224 0.6089,-1.55149 0.9459,1.37235 -5.7661,3.97292 -1.2236,0.27102 -5.7661,-0.97424 -0.9448,-0.51042 -5.7661,-6.22021 1.2226,-1.13293 -0.035,1.66629 -5.7661,-0.12215 0.035,-1.66629 1.2672,1.08294 -5.7661,6.74435 -1.2738,0.58372 -5.766,-0.023 0.01,-1.66665 0.4997,1.59002 -5.7661,1.81138 -0.828,0.044 -5.766,-1.15817 -0.2022,-0.054 -5.7661,-1.93534 0.5306,-1.58002 0.5348,1.57856 -5.7661,1.95289 -1.9744,-0.73817 -5.766,-9.87351 1.4395,-0.84038 1.337,0.99549 -5.7661,7.74101 -1.3314,0.67117 -5.7661,0.0191 -0.6939,-0.14874 -5.766,-2.61391 0.6884,-1.51792 0.6891,1.51759 -5.7661,2.61731 -0.6355,0.14822 -5.7661,0.18539 -0.054,-1.66581 0.3142,1.63679 -5.766,1.10645 -0.3142,-1.63679 0.3734,1.62431 -5.7661,1.32509 -0.5388,0.0341 -5.7661,-0.57503 -0.1426,-0.0205 -5.7661,-1.08416 0.3081,-1.63796 -0.2733,1.64412 -5.766,-0.95799 -0.4784,-0.15651 -5.7661,-2.91249 0.7517,-1.48761 0.7934,1.46575 -5.766,3.12027 -0.8823,0.19855 -5.7661,-0.30763 -0.4054,-0.0726 -5.7661,-1.7898 0.4943,-1.59172 0.4292,1.61048 -5.7661,1.5361 -0.4292,-1.61048 0.5031,1.58895 -5.766,1.82494 -0.6751,0.0688 -5.766,-0.59781 -0.1599,-0.0245 -5.7661,-1.17113 0.3319,-1.6333 0.3523,1.62902 -5.7661,1.24654 -0.3523,-1.62902 0.5063,1.58793 -5.7661,1.83778 -1.5161,-0.2619 -5.7661,-4.3896 1.0099,-1.32603 0.8153,1.45372 -5.7661,3.23265 -1.6957,-0.0385 -5.7661,-3.58587 0.8805,-1.41523 0.5901,1.55874 -5.7661,2.18215 -0.5507,0.10746 -5.7661,0.13628 -0.039,-1.6662 0.3771,1.62347 -5.7661,1.33876 -1.583,-0.47282 -5.766,-6.041 1.2059,-1.15065 1.0007,1.33294 -5.766,4.32735 -0.7707,0.31779 -5.7661,0.80315 -0.1694,0.0148 -5.766,0.20982 -0.061,-1.66556 0.623,1.54593 -5.7661,2.3225 -1.5059,-0.13226 -5.766,-3.60002 0.8829,-1.41367 0.7137,1.50619 -5.7661,2.73115 -0.2614,0.098 -5.7661,1.62483 -1.4234,-0.24958 -5.766,-4.13254 0.9711,-1.35459 0.7975,1.46361 -5.7661,3.14034 -0.7479,0.20233 -5.7661,0.17115 -1.5279,-0.89606 -5.7661,-11.0691 1.4785,-0.76988 1.4664,0.79262 -5.7661,10.66376 -1.8788,0.82223 -5.7661,-1.47213 0.4124,-1.61485 0.094,1.664 -5.7661,0.32642 -0.4326,-0.032 -5.7661,-1.19523 0.3384,-1.63197 -0.2956,1.64025 -5.7661,-1.03899 -0.1804,-0.043 -5.7661,-1.71807 0.4761,-1.59724 -0.3417,1.63127 -5.7661,-1.20751 0.3418,-1.63127 0.6638,1.52882 -5.7661,2.50277 -0.6638,-1.52882 0.988,1.34241 -5.7661,4.24207 -1.2309,0.30646 -5.7661,-0.84925 0.243,-1.64888 -0.05,1.66593 -5.7661,-0.17155 -0.093,-0.005 -5.766,-0.49627 -1.2109,-0.68809 -5.766,-8.02457 1.3538,-0.97243 1.3921,0.91672 -5.766,8.75326 -2.5196,0.31094 -5.766,-5.29334 1.1274,-1.22766 0.9714,1.35442 -5.7661,4.13409 -0.8825,0.30988 -5.7661,0.30775 -0.3003,-0.0111 -5.7661,-0.73735 0.2115,-1.6532 0.4473,1.60555 -5.7661,1.6058 -0.642,0.0497 -5.7661,-0.67827 0.1948,-1.65525 0.4452,1.60613 -5.7661,1.5977 -0.9467,-0.0167 -5.7661,-1.81885 0.5016,-1.58943 0.2295,1.65079 -5.7661,0.80134 -1.1481,-0.26003 -5.7661,-3.80712 0.9186,-1.39077 1.0718,1.2765 -5.766,4.8396 -0.7158,0.3517 -5.766,1.26046 -0.4282,0.0369 -5.7661,-0.24976 -1.2325,-0.62772 -5.7661,-7.24925 1.3047,-1.03738 0.363,1.62667 -5.7661,1.28613 -0.363,-1.62668 0.7436,1.49167 -5.7661,2.87323 -0.372,0.13307 -5.7661,1.318 -1.694,-0.61015 -5.766,-7.51324 1.3225,-1.0146 1.346,0.98318 -5.7661,7.89122 -2.5315,0.18847 -5.7661,-5.83236 1.1855,-1.17165 1.2461,1.10713 -5.7661,6.48713 -2.3748,0.11929 -5.7661,-5.30509 1.1288,-1.22642 -0.6553,1.5325 -5.766,-2.46462 0.6553,-1.5325 1.2377,1.11639 -5.7661,6.39054 -2.4726,0.003 -5.766,-6.35768 1.2348,-1.11956 1.3678,0.95266 -5.766,8.2757 -1.7655,0.66588 -5.7661,-1.41622 -1.1561,-1.01505 -5.7661,-14.84071 1.5539,-0.6035 1.5196,0.6851 -5.7661,12.78511 -0.4158,0.56382 -5.766,5.09428 -1.5567,0.35507 -5.766,-1.62726 0.4528,-1.604 -0.36,1.62735 -5.766,-1.27496 0.3599,-1.62734 -0.031,1.66637 -5.7661,-0.1084 0.031,-1.66637 0.3978,1.61851 -5.7661,1.41677 -1.7024,-0.58103 -5.76607,-7.24811 1.30461,-1.03749 0.88604,1.41174 -5.76606,3.61764 -1.60348,0.0927 -5.76606,-2.7488 -0.1752,-0.0968 -5.76606,-3.65535 0.89264,-1.40757 0.0153,1.66659 -5.76606,0.0529 -0.0153,-1.66659 0.91194,1.39515 -5.76606,3.76763 -2.3301,-0.51919 -5.76606,-9.33183 1.41816,-0.87596 1.16025,1.1967 -5.76605,5.58847 -2.31161,0.009 -5.76606,-5.50617 1.15135,-1.20526 1.56344,0.57821 -5.76606,15.58549 -2.05038,1.01577 -5.76606,-1.76086 0.48694,-1.59397 0.25083,1.64769 -5.76606,0.87744 -1.50083,-0.54505 -5.76606,-6.53429 1.25001,-1.10265 -0.091,1.66419 -5.76606,-0.31498 -0.46385,-0.0925 -5.76606,-2.03469 0.5548,-1.57166 1.45222,0.81828 -5.76606,10.22958 -1.5869,0.84294 -5.76606,-0.46729 0.13468,-1.66122 0.13734,1.661 -5.76606,0.47662 -1.04008,-0.25988 -5.76606,-3.7137 0.90274,-1.40112 0.3175,1.63615 -5.76606,1.11854 -1.6202,-0.59627 -5.76606,-7.22069 1.3027,-1.03989 1.14071,1.21532 -5.76606,5.41014 -0.74864,0.40459 -5.76606,1.39506 -0.39207,-1.61991 0.50714,1.58767 -5.76606,1.84116 -1.32652,-0.13624 -5.76606,-3.25399 -0.74594,-0.87833 -5.76606,-15.74353 1.56532,-0.57309 -1.50763,0.71109 -5.76606,-12.22058 1.50763,-0.71109 1.62728,0.36151 -5.76606,25.94578 -1.77384,1.2987 -5.76606,-0.50882 -1.32657,-0.88018 -5.76605,-10.88555 1.47312,-0.78004 -0.10561,1.66332 -5.76606,-0.36597 -0.26324,-0.038 -5.76606,-1.30805 0.36885,-1.62535 1.57136,0.55632 -5.76606,16.28062 -2.84012,0.52469 -5.76607,-6.76515 1.26877,-1.08101 -0.35953,1.62744 -5.76606,-1.27339 0.35953,-1.62744 -0.002,1.66667 -5.76606,-0.005 0.002,-1.66666 0.28576,1.64199 -5.76606,1.00309 -1.77513,-0.89345 -5.76606,-11.46854 1.48938,-0.74855 1.55274,0.60633 -5.76606,14.76082 -2.94043,0.31714 -5.76606,-8.66147 1.38769,-0.92347 -0.30179,1.63913 -5.76606,-1.06123 0.30179,-1.63913 0.36461,1.62631 -5.76606,1.29228 -1.73909,-0.68329 -5.76606,-8.40122 1.37448,-0.94301 0.37164,1.62472 -5.76606,1.31845 -0.50443,0.0367 -5.76606,-0.46071 0.13279,-1.66137 1.32656,1.00928 -5.76607,7.57596 -1.32656,-1.00929 1.36577,0.95557 -5.76606,8.23833 -0.82712,0.62169 -5.76606,1.96847 -1.04073,0.012 -5.76606,-1.82096 0.50208,-1.58927 1.24349,1.10998 -5.76606,6.45733 -1.21371,0.55642 -5.76606,0.10302 -1.22203,-0.50158 -5.76606,-5.89972 1.19225,-1.16482 1.07172,1.27656 -5.76606,4.83909 -1.35175,0.36643 -5.76606,-0.98242 -1.03187,-0.61473 -5.76605,-7.35396 1.31189,-1.02826 1.07852,1.27083 -5.76606,4.89175 -0.51868,0.29904 -5.76606,2.05551 -1.99854,-0.72805 -5.76606,-9.85092 1.4387,-0.84181 -0.94214,1.37494 -5.76606,-3.94966 0.94214,-1.37494 -0.29141,1.641 -5.76606,-1.0236 0.29142,-1.641 1.49937,0.72833 -5.76606,11.8661 -2.49725,0.60673 -5.76606,-4.30828 0.99788,-1.33505 1.22474,1.13062 -5.76606,6.24385 -1.08442,0.53012 -5.76606,0.48701 -0.56667,-0.0495 -5.76606,-1.52521 0.42635,-1.61123 0.20121,1.65448 -5.76606,0.701 -0.49255,-0.0135 -5.76606,-1.0233 0.29134,-1.64102 0.84938,1.43408 -5.76606,3.41391 -1.39842,0.13959 -5.76606,-2.01099 -0.88302,-0.7206 -5.76606,-9.67607 1.43206,-0.85307 0.89138,1.40837 -5.76605,3.64815 -1.66918,0.0658 -5.76606,-3.04124 -0.40198,-0.29666 -5.76606,-5.7753 1.17977,-1.17746 1.22244,1.13312 -5.76606,6.21831 -1.22244,-1.13312 1.36162,0.96147 -5.76606,8.16288 -2.6858,0.0509 -5.76606,-7.53917 -0.22566,-0.3987 -5.76606,-14.55669 1.54984,-0.61369 1.5688,0.5635 -5.76606,16.04695 -2.20436,0.97726 -5.76606,-2.37763 0.63556,-1.54078 1.04926,1.29508 -5.76606,4.66991 -2.71569,-1.25287 -5.76606,-227.586737 1.66644,-0.0422 1.66639,0.0435 -5.76606,220.788737 -3.00776,0.94603 -5.76606,-7.81341 -0.23613,-0.45084 -5.76606,-16.87938 1.5775,-0.53868 1.64144,0.29053 -5.76606,32.56448 -1.54562,1.37337 -5.76606,0.33194 -1.60265,-0.95113 -5.76606,-12.18508 1.50683,-0.71279 1.54024,0.63741 -5.76606,13.92828 -1.65927,1.02501 -5.76606,-0.4127 -1.00882,-0.43514 -5.76605,-5.29701 1.12784,-1.22728 -0.21463,1.6528 -5.76606,-0.7485 0.21463,-1.6528 1.42793,0.85996 -5.76606,9.57087 -2.72835,0.18278 -5.76606,-7.18836 -0.145,-0.21251 -5.76606,-10.03506 1.44542,-0.83023 -1.23307,1.12154 -5.76606,-6.33717 1.23307,-1.12155 1.58244,0.52399 -5.76606,17.40731 -1.17416,1.09191 -5.76606,1.45635 -0.076,0.0173 -5.76606,1.17267 -0.33228,-1.63322 0.4213,1.61256 -5.76606,1.5059 -1.51939,-0.3586 -5.76606,-5.04757 1.09809,-1.25395 0.70676,1.50945 -5.76606,2.69883 -1.81892,-0.26796 -5.76606,-5.16349 -0.18532,-0.19511 -5.76606,-7.14715 1.29748,-1.04639 1.23195,1.12278 -5.76606,6.32443 -2.29871,0.15792 -5.76606,-4.80117 -0.49632,-0.70154 -5.76606,-15.55658 1.56309,-0.57916 1.61319,0.41992 -5.76607,22.14343 -3.04866,0.42738 -5.76606,-9.76528 1.43548,-0.8473 1.26785,1.08208 -5.76605,6.75362 -0.56254,0.42805 -5.76606,2.69216 -0.70532,-1.51013 1.05981,1.28647 -5.76606,4.74847 -2.49046,-0.43103 -5.76606,-9.63987 1.43065,-0.85543 0.93223,1.38168 -5.76606,3.88905 -0.52492,0.23447 -5.76606,1.45266 -0.40731,-1.61615 0.44755,1.60548 -5.76606,1.6068 -2.05172,-1.15234 -5.76606,-20.40524 1.60417,-0.45314 1.52349,0.67646 -5.76606,12.98131 -3.075,-0.067 -5.76606,-14.67307 1.55151,-0.60947 1.5825,0.52379 -5.76606,17.41436 -0.43581,0.68589 -5.76606,5.46381 -1.76827,0.33677 -5.76606,-2.31678 -0.0219,-0.009 -5.76606,-2.4125 0.6435,-1.53747 1.45206,0.81856 -5.76605,10.22483 -2.63562,0.35509 -5.76606,-5.81261 -0.27003,-0.35779 -5.76606,-10.26935 1.45358,-0.81587 -0.98343,1.34573 -5.76606,-4.2122 0.98343,-1.34573 1.55805,0.59257 -5.76606,15.15529 -1.22773,1.04105 -5.76606,1.16548 -1.11426,-0.16276 -5.76606,-3.07213 -0.0759,-0.043 -5.76606,-3.47096 0.85983,-1.42785 -0.43777,1.60817 -5.76606,-1.56903 -1.22749,-1.53278 -5.76606,-127.31377 1.66526,-0.0754 1.66509,0.079 -5.76606,121.54196 -3.31949,0.12533 -5.76606,-46.67673 1.6544,-0.2043 1.65808,0.17187 -5.76606,55.60544 -3.13275,0.60524 -5.76606,-10.93799 1.47467,-0.77711 1.59134,0.4963 -5.76606,18.48199 -2.74628,0.70552 -5.76606,-5.53915 1.15494,-1.20182 0.95796,1.36397 -5.76606,4.04822 -1.45703,0.22625 -5.76606,-1.80896 0.49907,-1.59022 0.27855,1.64323 -5.76606,0.97708 -1.01327,-0.14718 -5.76606,-2.83074 0.73472,-1.49604 0.88159,1.41451 -5.76606,3.5924 -1.85013,-0.058 -5.76606,-4.11554 -0.69254,-1.21662 -5.76606,-68.45392 1.66108,-0.13987 1.66089,0.14224 -5.76606,67.3045 -0.38143,0.9261 -5.76606,6.90303 -1.00331,0.5753 -5.76606,0.96841 -0.14582,0.0179 -5.76605,0.45212 -0.70136,-0.0957 -5.76606,-2.10201 -0.6257,-0.4056 -5.76606,-5.94528 1.19673,-1.16023 1.26235,1.08849 -5.76606,6.68472 -1.527,0.55704 -5.76606,-0.92701 -1.19177,-0.83473 -5.76606,-10.35366 1.45642,-0.8108 1.56102,0.58467 -5.76606,15.38927 -2.2434,0.93595 -5.76606,-2.58657 0.68238,-1.52063 -0.20097,1.65451 -5.76606,-0.70016 0.200974,-1.65451 0.754246,1.48631 -5.766058,2.92503 -1.407841,0.0469 -5.76606,-2.45713 0.653594,-1.53322 0.190739,1.65572 -5.76606,0.66402 -0.190739,-1.65572 0.234403,1.6501 -5.766059,0.8188 -0.553318,-0.0142 -5.76606,-1.12369 -0.898878,-0.49777 -5.766059,-6.16757 -0.254483,-0.35647 -5.766059,-10.85692 -0.781779,-1.47201 2.944551,-1.56328 0.781779,1.47201 z"
                 style="fill:#37dcfa;fill-opacity:0.698039;fill-rule:nonzero;stroke:none"
                 id="path145" />
            </g>
          </g>
        </g>
      </g>
      <g
         id="g147">
        <g
           id="g149"
           transform="scale(1.6669651,1.6666667)" />
      </g>
      <g
         id="g151" />
      <g
         id="g167">
        <g
           id="g169"
           transform="scale(1.6669651,1.6666667)" />
      </g>
      <g
         id="g171"
         transform="matrix(0.50663467,0,0,1,307.37313,-288.27084)">
        <g
           id="g173"
           clip-path="url(#clipPath177)">
          <g
             id="g179"
             transform="scale(1.6669651,1.6666667)">
            <path
               d="M 32,188 H 1087"
               style="fill:none;stroke:#000000;stroke-width:1;stroke-linecap:square;stroke-linejoin:bevel;stroke-miterlimit:10;stroke-dasharray:none;stroke-opacity:1"
               id="path181" />
            <path
               d="m 32,188 v -5"
               style="fill:none;stroke:#000000;stroke-width:1;stroke-linecap:square;stroke-linejoin:bevel;stroke-miterlimit:10;stroke-dasharray:none;stroke-opacity:1"
               id="path183" />
            <path
               d="m 204.95082,188 v -5"
               style="fill:none;stroke:#000000;stroke-width:1;stroke-linecap:square;stroke-linejoin:bevel;stroke-miterlimit:10;stroke-dasharray:none;stroke-opacity:1"
               id="path185" />
            <path
               d="m 377.90164,188 v -5"
               style="fill:none;stroke:#000000;stroke-width:1;stroke-linecap:square;stroke-linejoin:bevel;stroke-miterlimit:10;stroke-dasharray:none;stroke-opacity:1"
               id="path187" />
            <path
               d="m 550.85246,188 v -5"
               style="fill:none;stroke:#000000;stroke-width:1;stroke-linecap:square;stroke-linejoin:bevel;stroke-miterlimit:10;stroke-dasharray:none;stroke-opacity:1"
               id="path189" />
            <path
               d="m 723.80328,188 v -5"
               style="fill:none;stroke:#000000;stroke-width:1;stroke-linecap:square;stroke-linejoin:bevel;stroke-miterlimit:10;stroke-dasharray:none;stroke-opacity:1"
               id="path191" />
            <path
               d="m 896.7541,188 v -5"
               style="fill:none;stroke:#000000;stroke-width:1;stroke-linecap:square;stroke-linejoin:bevel;stroke-miterlimit:10;stroke-dasharray:none;stroke-opacity:1"
               id="path193" />
            <path
               d="m 1069.7049,188 v -5"
               style="fill:none;stroke:#000000;stroke-width:1;stroke-linecap:square;stroke-linejoin:bevel;stroke-miterlimit:10;stroke-dasharray:none;stroke-opacity:1"
               id="path195" />
            <path
               d="m 66.590164,188 v -2"
               style="fill:none;stroke:#000000;stroke-width:1;stroke-linecap:square;stroke-linejoin:bevel;stroke-miterlimit:10;stroke-dasharray:none;stroke-opacity:1"
               id="path197" />
            <path
               d="m 101.18033,188 v -2"
               style="fill:none;stroke:#000000;stroke-width:1;stroke-linecap:square;stroke-linejoin:bevel;stroke-miterlimit:10;stroke-dasharray:none;stroke-opacity:1"
               id="path199" />
            <path
               d="m 135.77049,188 v -2"
               style="fill:none;stroke:#000000;stroke-width:1;stroke-linecap:square;stroke-linejoin:bevel;stroke-miterlimit:10;stroke-dasharray:none;stroke-opacity:1"
               id="path201" />
            <path
               d="m 170.36065,188 v -2"
               style="fill:none;stroke:#000000;stroke-width:1;stroke-linecap:square;stroke-linejoin:bevel;stroke-miterlimit:10;stroke-dasharray:none;stroke-opacity:1"
               id="path203" />
            <path
               d="m 239.54098,188 v -2"
               style="fill:none;stroke:#000000;stroke-width:1;stroke-linecap:square;stroke-linejoin:bevel;stroke-miterlimit:10;stroke-dasharray:none;stroke-opacity:1"
               id="path205" />
            <path
               d="m 274.13115,188 v -2"
               style="fill:none;stroke:#000000;stroke-width:1;stroke-linecap:square;stroke-linejoin:bevel;stroke-miterlimit:10;stroke-dasharray:none;stroke-opacity:1"
               id="path207" />
            <path
               d="m 308.72131,188 v -2"
               style="fill:none;stroke:#000000;stroke-width:1;stroke-linecap:square;stroke-linejoin:bevel;stroke-miterlimit:10;stroke-dasharray:none;stroke-opacity:1"
               id="path209" />
            <path
               d="m 343.31147,188 v -2"
               style="fill:none;stroke:#000000;stroke-width:1;stroke-linecap:square;stroke-linejoin:bevel;stroke-miterlimit:10;stroke-dasharray:none;stroke-opacity:1"
               id="path211" />
            <path
               d="m 412.4918,188 v -2"
               style="fill:none;stroke:#000000;stroke-width:1;stroke-linecap:square;stroke-linejoin:bevel;stroke-miterlimit:10;stroke-dasharray:none;stroke-opacity:1"
               id="path213" />
            <path
               d="m 447.08197,188 v -2"
               style="fill:none;stroke:#000000;stroke-width:1;stroke-linecap:square;stroke-linejoin:bevel;stroke-miterlimit:10;stroke-dasharray:none;stroke-opacity:1"
               id="path215" />
            <path
               d="m 481.67213,188 v -2"
               style="fill:none;stroke:#000000;stroke-width:1;stroke-linecap:square;stroke-linejoin:bevel;stroke-miterlimit:10;stroke-dasharray:none;stroke-opacity:1"
               id="path217" />
            <path
               d="m 516.26229,188 v -2"
               style="fill:none;stroke:#000000;stroke-width:1;stroke-linecap:square;stroke-linejoin:bevel;stroke-miterlimit:10;stroke-dasharray:none;stroke-opacity:1"
               id="path219" />
            <path
               d="m 585.44262,188 v -2"
               style="fill:none;stroke:#000000;stroke-width:1;stroke-linecap:square;stroke-linejoin:bevel;stroke-miterlimit:10;stroke-dasharray:none;stroke-opacity:1"
               id="path221" />
            <path
               d="m 620.03279,188 v -2"
               style="fill:none;stroke:#000000;stroke-width:1;stroke-linecap:square;stroke-linejoin:bevel;stroke-miterlimit:10;stroke-dasharray:none;stroke-opacity:1"
               id="path223" />
            <path
               d="m 654.62295,188 v -2"
               style="fill:none;stroke:#000000;stroke-width:1;stroke-linecap:square;stroke-linejoin:bevel;stroke-miterlimit:10;stroke-dasharray:none;stroke-opacity:1"
               id="path225" />
            <path
               d="m 689.21311,188 v -2"
               style="fill:none;stroke:#000000;stroke-width:1;stroke-linecap:square;stroke-linejoin:bevel;stroke-miterlimit:10;stroke-dasharray:none;stroke-opacity:1"
               id="path227" />
            <path
               d="m 758.39344,188 v -2"
               style="fill:none;stroke:#000000;stroke-width:1;stroke-linecap:square;stroke-linejoin:bevel;stroke-miterlimit:10;stroke-dasharray:none;stroke-opacity:1"
               id="path229" />
            <path
               d="m 792.98361,188 v -2"
               style="fill:none;stroke:#000000;stroke-width:1;stroke-linecap:square;stroke-linejoin:bevel;stroke-miterlimit:10;stroke-dasharray:none;stroke-opacity:1"
               id="path231" />
            <path
               d="m 827.57377,188 v -2"
               style="fill:none;stroke:#000000;stroke-width:1;stroke-linecap:square;stroke-linejoin:bevel;stroke-miterlimit:10;stroke-dasharray:none;stroke-opacity:1"
               id="path233" />
            <path
               d="m 862.16393,188 v -2"
               style="fill:none;stroke:#000000;stroke-width:1;stroke-linecap:square;stroke-linejoin:bevel;stroke-miterlimit:10;stroke-dasharray:none;stroke-opacity:1"
               id="path235" />
            <path
               d="m 931.34426,188 v -2"
               style="fill:none;stroke:#000000;stroke-width:1;stroke-linecap:square;stroke-linejoin:bevel;stroke-miterlimit:10;stroke-dasharray:none;stroke-opacity:1"
               id="path237" />
            <path
               d="m 965.93443,188 v -2"
               style="fill:none;stroke:#000000;stroke-width:1;stroke-linecap:square;stroke-linejoin:bevel;stroke-miterlimit:10;stroke-dasharray:none;stroke-opacity:1"
               id="path239" />
            <path
               d="m 1000.5246,188 v -2"
               style="fill:none;stroke:#000000;stroke-width:1;stroke-linecap:square;stroke-linejoin:bevel;stroke-miterlimit:10;stroke-dasharray:none;stroke-opacity:1"
               id="path241" />
            <path
               d="m 1035.1148,188 v -2"
               style="fill:none;stroke:#000000;stroke-width:1;stroke-linecap:square;stroke-linejoin:bevel;stroke-miterlimit:10;stroke-dasharray:none;stroke-opacity:1"
               id="path243" />
          </g>
          <g
             id="g245"
             transform="matrix(1.6669651,0,0,1.6666667,46.675022,318.33333)">
            <g
               id="g247">
              <text
                 transform="translate(0.5,13)"
                 style="font-variant:normal;font-weight:normal;font-size:13px;font-family:Tahoma;-inkscape-font-specification:TahomaRegular;writing-mode:lr-tb;fill:#000000;fill-opacity:1;fill-rule:nonzero;stroke:none"
                 id="text251"><tspan
                   x="0"
                   y="0"
                   id="tspan249">0</tspan></text>
            </g>
          </g>
          <g
             id="g253"
             transform="matrix(1.6669651,0,0,1.6666667,306.63959,318.33333)">
            <g
               id="g255">
              <text
                 transform="translate(0,13)"
                 style="font-variant:normal;font-weight:normal;font-size:13px;font-family:Tahoma;-inkscape-font-specification:TahomaRegular;writing-mode:lr-tb;fill:#000000;fill-opacity:1;fill-rule:nonzero;stroke:none"
                 id="text259"><tspan
                   x="0 7 14 21 28 35"
                   y="0"
                   sodipodi:role="line"
                   id="tspan257">100000</tspan></text>
            </g>
          </g>
          <g
             id="g261"
             transform="matrix(1.6669651,0,0,1.6666667,594.94257,318.33333)">
            <g
               id="g263">
              <text
                 transform="translate(0,13)"
                 style="font-variant:normal;font-weight:normal;font-size:13px;font-family:Tahoma;-inkscape-font-specification:TahomaRegular;writing-mode:lr-tb;fill:#000000;fill-opacity:1;fill-rule:nonzero;stroke:none"
                 id="text267"><tspan
                   x="0 7 14 21 28 35"
                   y="0"
                   sodipodi:role="line"
                   id="tspan265">200000</tspan></text>
            </g>
          </g>
          <g
             id="g269"
             transform="matrix(1.6669651,0,0,1.6666667,883.24555,318.33333)">
            <g
               id="g271">
              <text
                 transform="translate(0,13)"
                 style="font-variant:normal;font-weight:normal;font-size:13px;font-family:Tahoma;-inkscape-font-specification:TahomaRegular;writing-mode:lr-tb;fill:#000000;fill-opacity:1;fill-rule:nonzero;stroke:none"
                 id="text275"><tspan
                   x="0 7 14 21 28 35"
                   y="0"
                   sodipodi:role="line"
                   id="tspan273">300000</tspan></text>
            </g>
          </g>
          <g
             id="g277"
             transform="matrix(1.6669651,0,0,1.6666667,1171.5485,318.33333)">
            <g
               id="g279">
              <text
                 transform="translate(0,13)"
                 style="font-variant:normal;font-weight:normal;font-size:13px;font-family:Tahoma;-inkscape-font-specification:TahomaRegular;writing-mode:lr-tb;fill:#000000;fill-opacity:1;fill-rule:nonzero;stroke:none"
                 id="text283"><tspan
                   x="0 7 14 21 28 35"
                   y="0"
                   sodipodi:role="line"
                   id="tspan281">400000</tspan></text>
            </g>
          </g>
          <g
             id="g285"
             transform="matrix(1.6669651,0,0,1.6666667,1459.8515,318.33333)">
            <g
               id="g287">
              <text
                 transform="translate(0,13)"
                 style="font-variant:normal;font-weight:normal;font-size:13px;font-family:Tahoma;-inkscape-font-specification:TahomaRegular;writing-mode:lr-tb;fill:#000000;fill-opacity:1;fill-rule:nonzero;stroke:none"
                 id="text291"><tspan
                   x="0 7 14 21 28 35"
                   y="0"
                   sodipodi:role="line"
                   id="tspan289">500000</tspan></text>
            </g>
          </g>
          <g
             id="g293"
             transform="matrix(1.6669651,0,0,1.6666667,1748.1545,318.33333)">
            <g
               id="g295">
              <text
                 transform="translate(0,13)"
                 style="font-variant:normal;font-weight:normal;font-size:13px;font-family:Tahoma;-inkscape-font-specification:TahomaRegular;writing-mode:lr-tb;fill:#000000;fill-opacity:1;fill-rule:nonzero;stroke:none"
                 id="text299"><tspan
                   x="0 7 14 21 28 35"
                   y="0"
                   sodipodi:role="line"
                   id="tspan297">600000</tspan></text>
            </g>
          </g>
        </g>
      </g>
      <g
         id="g301">
        <g
           id="g303"
           transform="scale(1.6669651,1.6666667)" />
      </g>
      <g
         id="g305"
         transform="matrix(0.50663467,0,0,1,307.37313,-288.27084)">
        <g
           id="g307"
           clip-path="url(#clipPath311)">
          <g
             id="g313"
             transform="scale(1.6669651,1.6666667)">
            <path
               d="M 32,188 V 46"
               style="fill:none;stroke:#000000;stroke-width:1;stroke-linecap:square;stroke-linejoin:bevel;stroke-miterlimit:10;stroke-dasharray:none;stroke-opacity:1"
               id="path315" />
            <path
               d="m 32,164.2257 h 5"
               style="fill:none;stroke:#000000;stroke-width:1;stroke-linecap:square;stroke-linejoin:bevel;stroke-miterlimit:10;stroke-dasharray:none;stroke-opacity:1"
               id="path317" />
            <path
               d="m 32,137.53508 h 5"
               style="fill:none;stroke:#000000;stroke-width:1;stroke-linecap:square;stroke-linejoin:bevel;stroke-miterlimit:10;stroke-dasharray:none;stroke-opacity:1"
               id="path319" />
            <path
               d="m 32,110.84447 h 5"
               style="fill:none;stroke:#000000;stroke-width:1;stroke-linecap:square;stroke-linejoin:bevel;stroke-miterlimit:10;stroke-dasharray:none;stroke-opacity:1"
               id="path321" />
            <path
               d="m 32,84.153853 h 5"
               style="fill:none;stroke:#000000;stroke-width:1;stroke-linecap:square;stroke-linejoin:bevel;stroke-miterlimit:10;stroke-dasharray:none;stroke-opacity:1"
               id="path323" />
            <path
               d="m 32,57.463238 h 5"
               style="fill:none;stroke:#000000;stroke-width:1;stroke-linecap:square;stroke-linejoin:bevel;stroke-miterlimit:10;stroke-dasharray:none;stroke-opacity:1"
               id="path325" />
            <path
               d="m 32,185.57819 h 2"
               style="fill:none;stroke:#000000;stroke-width:1;stroke-linecap:square;stroke-linejoin:bevel;stroke-miterlimit:10;stroke-dasharray:none;stroke-opacity:1"
               id="path327" />
            <path
               d="m 32,180.24007 h 2"
               style="fill:none;stroke:#000000;stroke-width:1;stroke-linecap:square;stroke-linejoin:bevel;stroke-miterlimit:10;stroke-dasharray:none;stroke-opacity:1"
               id="path329" />
            <path
               d="m 32,174.90194 h 2"
               style="fill:none;stroke:#000000;stroke-width:1;stroke-linecap:square;stroke-linejoin:bevel;stroke-miterlimit:10;stroke-dasharray:none;stroke-opacity:1"
               id="path331" />
            <path
               d="m 32,169.56382 h 2"
               style="fill:none;stroke:#000000;stroke-width:1;stroke-linecap:square;stroke-linejoin:bevel;stroke-miterlimit:10;stroke-dasharray:none;stroke-opacity:1"
               id="path333" />
            <path
               d="m 32,158.88757 h 2"
               style="fill:none;stroke:#000000;stroke-width:1;stroke-linecap:square;stroke-linejoin:bevel;stroke-miterlimit:10;stroke-dasharray:none;stroke-opacity:1"
               id="path335" />
            <path
               d="m 32,153.54945 h 2"
               style="fill:none;stroke:#000000;stroke-width:1;stroke-linecap:square;stroke-linejoin:bevel;stroke-miterlimit:10;stroke-dasharray:none;stroke-opacity:1"
               id="path337" />
            <path
               d="m 32,148.21133 h 2"
               style="fill:none;stroke:#000000;stroke-width:1;stroke-linecap:square;stroke-linejoin:bevel;stroke-miterlimit:10;stroke-dasharray:none;stroke-opacity:1"
               id="path339" />
            <path
               d="m 32,142.87321 h 2"
               style="fill:none;stroke:#000000;stroke-width:1;stroke-linecap:square;stroke-linejoin:bevel;stroke-miterlimit:10;stroke-dasharray:none;stroke-opacity:1"
               id="path341" />
            <path
               d="m 32,132.19696 h 2"
               style="fill:none;stroke:#000000;stroke-width:1;stroke-linecap:square;stroke-linejoin:bevel;stroke-miterlimit:10;stroke-dasharray:none;stroke-opacity:1"
               id="path343" />
            <path
               d="m 32,126.85884 h 2"
               style="fill:none;stroke:#000000;stroke-width:1;stroke-linecap:square;stroke-linejoin:bevel;stroke-miterlimit:10;stroke-dasharray:none;stroke-opacity:1"
               id="path345" />
            <path
               d="m 32,121.52071 h 2"
               style="fill:none;stroke:#000000;stroke-width:1;stroke-linecap:square;stroke-linejoin:bevel;stroke-miterlimit:10;stroke-dasharray:none;stroke-opacity:1"
               id="path347" />
            <path
               d="m 32,116.18259 h 2"
               style="fill:none;stroke:#000000;stroke-width:1;stroke-linecap:square;stroke-linejoin:bevel;stroke-miterlimit:10;stroke-dasharray:none;stroke-opacity:1"
               id="path349" />
            <path
               d="m 32,105.50634 h 2"
               style="fill:none;stroke:#000000;stroke-width:1;stroke-linecap:square;stroke-linejoin:bevel;stroke-miterlimit:10;stroke-dasharray:none;stroke-opacity:1"
               id="path351" />
            <path
               d="m 32,100.16822 h 2"
               style="fill:none;stroke:#000000;stroke-width:1;stroke-linecap:square;stroke-linejoin:bevel;stroke-miterlimit:10;stroke-dasharray:none;stroke-opacity:1"
               id="path353" />
            <path
               d="m 32,94.830099 h 2"
               style="fill:none;stroke:#000000;stroke-width:1;stroke-linecap:square;stroke-linejoin:bevel;stroke-miterlimit:10;stroke-dasharray:none;stroke-opacity:1"
               id="path355" />
            <path
               d="m 32,89.491976 h 2"
               style="fill:none;stroke:#000000;stroke-width:1;stroke-linecap:square;stroke-linejoin:bevel;stroke-miterlimit:10;stroke-dasharray:none;stroke-opacity:1"
               id="path357" />
            <path
               d="m 32,78.81573 h 2"
               style="fill:none;stroke:#000000;stroke-width:1;stroke-linecap:square;stroke-linejoin:bevel;stroke-miterlimit:10;stroke-dasharray:none;stroke-opacity:1"
               id="path359" />
            <path
               d="m 32,73.477607 h 2"
               style="fill:none;stroke:#000000;stroke-width:1;stroke-linecap:square;stroke-linejoin:bevel;stroke-miterlimit:10;stroke-dasharray:none;stroke-opacity:1"
               id="path361" />
            <path
               d="m 32,68.139484 h 2"
               style="fill:none;stroke:#000000;stroke-width:1;stroke-linecap:square;stroke-linejoin:bevel;stroke-miterlimit:10;stroke-dasharray:none;stroke-opacity:1"
               id="path363" />
            <path
               d="m 32,62.801361 h 2"
               style="fill:none;stroke:#000000;stroke-width:1;stroke-linecap:square;stroke-linejoin:bevel;stroke-miterlimit:10;stroke-dasharray:none;stroke-opacity:1"
               id="path365" />
            <path
               d="m 32,52.125115 h 2"
               style="fill:none;stroke:#000000;stroke-width:1;stroke-linecap:square;stroke-linejoin:bevel;stroke-miterlimit:10;stroke-dasharray:none;stroke-opacity:1"
               id="path367" />
            <path
               d="m 32,46.786992 h 2"
               style="fill:none;stroke:#000000;stroke-width:1;stroke-linecap:square;stroke-linejoin:bevel;stroke-miterlimit:10;stroke-dasharray:none;stroke-opacity:1"
               id="path369" />
          </g>
          <g
             id="g371"
             transform="matrix(1.6669651,0,0,1.6666667,8.3348254,260.37616)">
            <g
               id="g373">
              <text
                 transform="translate(0.5,13)"
                 style="font-variant:normal;font-weight:normal;font-size:13px;font-family:Tahoma;-inkscape-font-specification:TahomaRegular;writing-mode:lr-tb;fill:#000000;fill-opacity:1;fill-rule:nonzero;stroke:none"
                 id="text377"><tspan
                   x="0 7 14"
                   y="0"
                   sodipodi:role="line"
                   id="tspan375">100</tspan></text>
            </g>
          </g>
          <g
             id="g379"
             transform="matrix(1.6669651,0,0,1.6666667,8.3348254,215.89181)">
            <g
               id="g381">
              <text
                 transform="translate(0.5,13)"
                 style="font-variant:normal;font-weight:normal;font-size:13px;font-family:Tahoma;-inkscape-font-specification:TahomaRegular;writing-mode:lr-tb;fill:#000000;fill-opacity:1;fill-rule:nonzero;stroke:none"
                 id="text385"><tspan
                   x="0 7 14"
                   y="0"
                   sodipodi:role="line"
                   id="tspan383">200</tspan></text>
            </g>
          </g>
          <g
             id="g387"
             transform="matrix(1.6669651,0,0,1.6666667,8.3348254,171.40745)">
            <g
               id="g389">
              <text
                 transform="translate(0.5,13)"
                 style="font-variant:normal;font-weight:normal;font-size:13px;font-family:Tahoma;-inkscape-font-specification:TahomaRegular;writing-mode:lr-tb;fill:#000000;fill-opacity:1;fill-rule:nonzero;stroke:none"
                 id="text393"><tspan
                   x="0 7 14"
                   y="0"
                   sodipodi:role="line"
                   id="tspan391">300</tspan></text>
            </g>
          </g>
          <g
             id="g395"
             transform="matrix(1.6669651,0,0,1.6666667,8.3348254,126.92309)">
            <g
               id="g397">
              <text
                 transform="translate(0.5,13)"
                 style="font-variant:normal;font-weight:normal;font-size:13px;font-family:Tahoma;-inkscape-font-specification:TahomaRegular;writing-mode:lr-tb;fill:#000000;fill-opacity:1;fill-rule:nonzero;stroke:none"
                 id="text401"><tspan
                   x="0 7 14"
                   y="0"
                   sodipodi:role="line"
                   id="tspan399">400</tspan></text>
            </g>
          </g>
          <g
             id="g403"
             transform="matrix(1.6669651,0,0,1.6666667,8.3348254,82.43873)">
            <g
               id="g405">
              <text
                 transform="translate(0.5,13)"
                 style="font-variant:normal;font-weight:normal;font-size:13px;font-family:Tahoma;-inkscape-font-specification:TahomaRegular;writing-mode:lr-tb;fill:#000000;fill-opacity:1;fill-rule:nonzero;stroke:none"
                 id="text409"><tspan
                   x="0 7 14"
                   y="0"
                   sodipodi:role="line"
                   id="tspan407">500</tspan></text>
            </g>
          </g>
        </g>
      </g>
      <g
         id="g411">
        <g
           id="g413"
           transform="scale(1.6669651,1.6666667)" />
      </g>
      <g
         id="g415"
         transform="matrix(0.50663467,0,0,1,307.37313,-288.27084)">
        <g
           id="g417"
           clip-path="url(#clipPath421)">
          <g
             id="g423"
             transform="scale(1.6669651,1.6666667)">
            <path
               d="M 32,46 H 1087"
               style="fill:none;stroke:#000000;stroke-width:1;stroke-linecap:square;stroke-linejoin:bevel;stroke-miterlimit:10;stroke-dasharray:none;stroke-opacity:1"
               id="path425" />
            <path
               d="m 32,46 v 5"
               style="fill:none;stroke:#000000;stroke-width:1;stroke-linecap:square;stroke-linejoin:bevel;stroke-miterlimit:10;stroke-dasharray:none;stroke-opacity:1"
               id="path427" />
            <path
               d="m 204.95082,46 v 5"
               style="fill:none;stroke:#000000;stroke-width:1;stroke-linecap:square;stroke-linejoin:bevel;stroke-miterlimit:10;stroke-dasharray:none;stroke-opacity:1"
               id="path429" />
            <path
               d="m 377.90164,46 v 5"
               style="fill:none;stroke:#000000;stroke-width:1;stroke-linecap:square;stroke-linejoin:bevel;stroke-miterlimit:10;stroke-dasharray:none;stroke-opacity:1"
               id="path431" />
            <path
               d="m 550.85246,46 v 5"
               style="fill:none;stroke:#000000;stroke-width:1;stroke-linecap:square;stroke-linejoin:bevel;stroke-miterlimit:10;stroke-dasharray:none;stroke-opacity:1"
               id="path433" />
            <path
               d="m 723.80328,46 v 5"
               style="fill:none;stroke:#000000;stroke-width:1;stroke-linecap:square;stroke-linejoin:bevel;stroke-miterlimit:10;stroke-dasharray:none;stroke-opacity:1"
               id="path435" />
            <path
               d="m 896.7541,46 v 5"
               style="fill:none;stroke:#000000;stroke-width:1;stroke-linecap:square;stroke-linejoin:bevel;stroke-miterlimit:10;stroke-dasharray:none;stroke-opacity:1"
               id="path437" />
            <path
               d="m 1069.7049,46 v 5"
               style="fill:none;stroke:#000000;stroke-width:1;stroke-linecap:square;stroke-linejoin:bevel;stroke-miterlimit:10;stroke-dasharray:none;stroke-opacity:1"
               id="path439" />
            <path
               d="m 66.590164,46 v 2"
               style="fill:none;stroke:#000000;stroke-width:1;stroke-linecap:square;stroke-linejoin:bevel;stroke-miterlimit:10;stroke-dasharray:none;stroke-opacity:1"
               id="path441" />
            <path
               d="m 101.18033,46 v 2"
               style="fill:none;stroke:#000000;stroke-width:1;stroke-linecap:square;stroke-linejoin:bevel;stroke-miterlimit:10;stroke-dasharray:none;stroke-opacity:1"
               id="path443" />
            <path
               d="m 135.77049,46 v 2"
               style="fill:none;stroke:#000000;stroke-width:1;stroke-linecap:square;stroke-linejoin:bevel;stroke-miterlimit:10;stroke-dasharray:none;stroke-opacity:1"
               id="path445" />
            <path
               d="m 170.36065,46 v 2"
               style="fill:none;stroke:#000000;stroke-width:1;stroke-linecap:square;stroke-linejoin:bevel;stroke-miterlimit:10;stroke-dasharray:none;stroke-opacity:1"
               id="path447" />
            <path
               d="m 239.54098,46 v 2"
               style="fill:none;stroke:#000000;stroke-width:1;stroke-linecap:square;stroke-linejoin:bevel;stroke-miterlimit:10;stroke-dasharray:none;stroke-opacity:1"
               id="path449" />
            <path
               d="m 274.13115,46 v 2"
               style="fill:none;stroke:#000000;stroke-width:1;stroke-linecap:square;stroke-linejoin:bevel;stroke-miterlimit:10;stroke-dasharray:none;stroke-opacity:1"
               id="path451" />
            <path
               d="m 308.72131,46 v 2"
               style="fill:none;stroke:#000000;stroke-width:1;stroke-linecap:square;stroke-linejoin:bevel;stroke-miterlimit:10;stroke-dasharray:none;stroke-opacity:1"
               id="path453" />
            <path
               d="m 343.31147,46 v 2"
               style="fill:none;stroke:#000000;stroke-width:1;stroke-linecap:square;stroke-linejoin:bevel;stroke-miterlimit:10;stroke-dasharray:none;stroke-opacity:1"
               id="path455" />
            <path
               d="m 412.4918,46 v 2"
               style="fill:none;stroke:#000000;stroke-width:1;stroke-linecap:square;stroke-linejoin:bevel;stroke-miterlimit:10;stroke-dasharray:none;stroke-opacity:1"
               id="path457" />
            <path
               d="m 447.08197,46 v 2"
               style="fill:none;stroke:#000000;stroke-width:1;stroke-linecap:square;stroke-linejoin:bevel;stroke-miterlimit:10;stroke-dasharray:none;stroke-opacity:1"
               id="path459" />
            <path
               d="m 481.67213,46 v 2"
               style="fill:none;stroke:#000000;stroke-width:1;stroke-linecap:square;stroke-linejoin:bevel;stroke-miterlimit:10;stroke-dasharray:none;stroke-opacity:1"
               id="path461" />
            <path
               d="m 516.26229,46 v 2"
               style="fill:none;stroke:#000000;stroke-width:1;stroke-linecap:square;stroke-linejoin:bevel;stroke-miterlimit:10;stroke-dasharray:none;stroke-opacity:1"
               id="path463" />
            <path
               d="m 585.44262,46 v 2"
               style="fill:none;stroke:#000000;stroke-width:1;stroke-linecap:square;stroke-linejoin:bevel;stroke-miterlimit:10;stroke-dasharray:none;stroke-opacity:1"
               id="path465" />
            <path
               d="m 620.03279,46 v 2"
               style="fill:none;stroke:#000000;stroke-width:1;stroke-linecap:square;stroke-linejoin:bevel;stroke-miterlimit:10;stroke-dasharray:none;stroke-opacity:1"
               id="path467" />
            <path
               d="m 654.62295,46 v 2"
               style="fill:none;stroke:#000000;stroke-width:1;stroke-linecap:square;stroke-linejoin:bevel;stroke-miterlimit:10;stroke-dasharray:none;stroke-opacity:1"
               id="path469" />
            <path
               d="m 689.21311,46 v 2"
               style="fill:none;stroke:#000000;stroke-width:1;stroke-linecap:square;stroke-linejoin:bevel;stroke-miterlimit:10;stroke-dasharray:none;stroke-opacity:1"
               id="path471" />
            <path
               d="m 758.39344,46 v 2"
               style="fill:none;stroke:#000000;stroke-width:1;stroke-linecap:square;stroke-linejoin:bevel;stroke-miterlimit:10;stroke-dasharray:none;stroke-opacity:1"
               id="path473" />
            <path
               d="m 792.98361,46 v 2"
               style="fill:none;stroke:#000000;stroke-width:1;stroke-linecap:square;stroke-linejoin:bevel;stroke-miterlimit:10;stroke-dasharray:none;stroke-opacity:1"
               id="path475" />
            <path
               d="m 827.57377,46 v 2"
               style="fill:none;stroke:#000000;stroke-width:1;stroke-linecap:square;stroke-linejoin:bevel;stroke-miterlimit:10;stroke-dasharray:none;stroke-opacity:1"
               id="path477" />
            <path
               d="m 862.16393,46 v 2"
               style="fill:none;stroke:#000000;stroke-width:1;stroke-linecap:square;stroke-linejoin:bevel;stroke-miterlimit:10;stroke-dasharray:none;stroke-opacity:1"
               id="path479" />
            <path
               d="m 931.34426,46 v 2"
               style="fill:none;stroke:#000000;stroke-width:1;stroke-linecap:square;stroke-linejoin:bevel;stroke-miterlimit:10;stroke-dasharray:none;stroke-opacity:1"
               id="path481" />
            <path
               d="m 965.93443,46 v 2"
               style="fill:none;stroke:#000000;stroke-width:1;stroke-linecap:square;stroke-linejoin:bevel;stroke-miterlimit:10;stroke-dasharray:none;stroke-opacity:1"
               id="path483" />
            <path
               d="m 1000.5246,46 v 2"
               style="fill:none;stroke:#000000;stroke-width:1;stroke-linecap:square;stroke-linejoin:bevel;stroke-miterlimit:10;stroke-dasharray:none;stroke-opacity:1"
               id="path485" />
            <path
               d="m 1035.1148,46 v 2"
               style="fill:none;stroke:#000000;stroke-width:1;stroke-linecap:square;stroke-linejoin:bevel;stroke-miterlimit:10;stroke-dasharray:none;stroke-opacity:1"
               id="path487" />
          </g>
        </g>
      </g>
      <g
         id="g489">
        <g
           id="g491"
           transform="scale(1.6669651,1.6666667)" />
      </g>
      <g
         id="g493"
         transform="matrix(0.50663467,0,0,1,307.37313,-288.27084)">
        <g
           id="g495"
           clip-path="url(#clipPath499)">
          <g
             id="g501"
             transform="scale(1.6669651,1.6666667)">
            <path
               d="M 1087,188 V 46"
               style="fill:none;stroke:#000000;stroke-width:1;stroke-linecap:square;stroke-linejoin:bevel;stroke-miterlimit:10;stroke-dasharray:none;stroke-opacity:1"
               id="path503" />
            <path
               d="m 1087,184.63306 h -5"
               style="fill:none;stroke:#000000;stroke-width:1;stroke-linecap:square;stroke-linejoin:bevel;stroke-miterlimit:10;stroke-dasharray:none;stroke-opacity:1"
               id="path505" />
            <path
               d="m 1087,157.0338 h -5"
               style="fill:none;stroke:#000000;stroke-width:1;stroke-linecap:square;stroke-linejoin:bevel;stroke-miterlimit:10;stroke-dasharray:none;stroke-opacity:1"
               id="path507" />
            <path
               d="m 1087,129.43453 h -5"
               style="fill:none;stroke:#000000;stroke-width:1;stroke-linecap:square;stroke-linejoin:bevel;stroke-miterlimit:10;stroke-dasharray:none;stroke-opacity:1"
               id="path509" />
            <path
               d="m 1087,101.83526 h -5"
               style="fill:none;stroke:#000000;stroke-width:1;stroke-linecap:square;stroke-linejoin:bevel;stroke-miterlimit:10;stroke-dasharray:none;stroke-opacity:1"
               id="path511" />
            <path
               d="m 1087,74.235998 h -5"
               style="fill:none;stroke:#000000;stroke-width:1;stroke-linecap:square;stroke-linejoin:bevel;stroke-miterlimit:10;stroke-dasharray:none;stroke-opacity:1"
               id="path513" />
            <path
               d="m 1087,46.636731 h -5"
               style="fill:none;stroke:#000000;stroke-width:1;stroke-linecap:square;stroke-linejoin:bevel;stroke-miterlimit:10;stroke-dasharray:none;stroke-opacity:1"
               id="path515" />
            <path
               d="m 1087,177.73325 h -2"
               style="fill:none;stroke:#000000;stroke-width:1;stroke-linecap:square;stroke-linejoin:bevel;stroke-miterlimit:10;stroke-dasharray:none;stroke-opacity:1"
               id="path517" />
            <path
               d="m 1087,170.83343 h -2"
               style="fill:none;stroke:#000000;stroke-width:1;stroke-linecap:square;stroke-linejoin:bevel;stroke-miterlimit:10;stroke-dasharray:none;stroke-opacity:1"
               id="path519" />
            <path
               d="m 1087,163.93361 h -2"
               style="fill:none;stroke:#000000;stroke-width:1;stroke-linecap:square;stroke-linejoin:bevel;stroke-miterlimit:10;stroke-dasharray:none;stroke-opacity:1"
               id="path521" />
            <path
               d="m 1087,150.13398 h -2"
               style="fill:none;stroke:#000000;stroke-width:1;stroke-linecap:square;stroke-linejoin:bevel;stroke-miterlimit:10;stroke-dasharray:none;stroke-opacity:1"
               id="path523" />
            <path
               d="m 1087,143.23416 h -2"
               style="fill:none;stroke:#000000;stroke-width:1;stroke-linecap:square;stroke-linejoin:bevel;stroke-miterlimit:10;stroke-dasharray:none;stroke-opacity:1"
               id="path525" />
            <path
               d="m 1087,136.33435 h -2"
               style="fill:none;stroke:#000000;stroke-width:1;stroke-linecap:square;stroke-linejoin:bevel;stroke-miterlimit:10;stroke-dasharray:none;stroke-opacity:1"
               id="path527" />
            <path
               d="m 1087,122.53471 h -2"
               style="fill:none;stroke:#000000;stroke-width:1;stroke-linecap:square;stroke-linejoin:bevel;stroke-miterlimit:10;stroke-dasharray:none;stroke-opacity:1"
               id="path529" />
            <path
               d="m 1087,115.6349 h -2"
               style="fill:none;stroke:#000000;stroke-width:1;stroke-linecap:square;stroke-linejoin:bevel;stroke-miterlimit:10;stroke-dasharray:none;stroke-opacity:1"
               id="path531" />
            <path
               d="m 1087,108.73508 h -2"
               style="fill:none;stroke:#000000;stroke-width:1;stroke-linecap:square;stroke-linejoin:bevel;stroke-miterlimit:10;stroke-dasharray:none;stroke-opacity:1"
               id="path533" />
            <path
               d="m 1087,94.935448 h -2"
               style="fill:none;stroke:#000000;stroke-width:1;stroke-linecap:square;stroke-linejoin:bevel;stroke-miterlimit:10;stroke-dasharray:none;stroke-opacity:1"
               id="path535" />
            <path
               d="m 1087,88.035631 h -2"
               style="fill:none;stroke:#000000;stroke-width:1;stroke-linecap:square;stroke-linejoin:bevel;stroke-miterlimit:10;stroke-dasharray:none;stroke-opacity:1"
               id="path537" />
            <path
               d="m 1087,81.135814 h -2"
               style="fill:none;stroke:#000000;stroke-width:1;stroke-linecap:square;stroke-linejoin:bevel;stroke-miterlimit:10;stroke-dasharray:none;stroke-opacity:1"
               id="path539" />
            <path
               d="m 1087,67.336181 h -2"
               style="fill:none;stroke:#000000;stroke-width:1;stroke-linecap:square;stroke-linejoin:bevel;stroke-miterlimit:10;stroke-dasharray:none;stroke-opacity:1"
               id="path541" />
            <path
               d="m 1087,60.436364 h -2"
               style="fill:none;stroke:#000000;stroke-width:1;stroke-linecap:square;stroke-linejoin:bevel;stroke-miterlimit:10;stroke-dasharray:none;stroke-opacity:1"
               id="path543" />
            <path
               d="m 1087,53.536548 h -2"
               style="fill:none;stroke:#000000;stroke-width:1;stroke-linecap:square;stroke-linejoin:bevel;stroke-miterlimit:10;stroke-dasharray:none;stroke-opacity:1"
               id="path545" />
          </g>
          <g
             id="g547"
             transform="matrix(1.6669651,0,0,1.6666667,1821.9928,294.38844)">
            <g
               id="g549">
              <text
                 transform="translate(0.5,13)"
                 style="font-variant:normal;font-weight:normal;font-size:13px;font-family:Tahoma;-inkscape-font-specification:TahomaRegular;writing-mode:lr-tb;fill:#000000;fill-opacity:1;fill-rule:nonzero;stroke:none"
                 id="text553"><tspan
                   x="0"
                   y="0"
                   id="tspan551">0</tspan></text>
            </g>
          </g>
          <g
             id="g555"
             transform="matrix(1.6669651,0,0,1.6666667,1821.9928,248.38966)">
            <g
               id="g557">
              <text
                 transform="translate(0,13)"
                 style="font-variant:normal;font-weight:normal;font-size:13px;font-family:Tahoma;-inkscape-font-specification:TahomaRegular;writing-mode:lr-tb;fill:#000000;fill-opacity:1;fill-rule:nonzero;stroke:none"
                 id="text561"><tspan
                   x="0 7 11"
                   y="0"
                   sodipodi:role="line"
                   id="tspan559">0.2</tspan></text>
            </g>
          </g>
          <g
             id="g563"
             transform="matrix(1.6669651,0,0,1.6666667,1821.9928,202.39088)">
            <g
               id="g565">
              <text
                 transform="translate(0,13)"
                 style="font-variant:normal;font-weight:normal;font-size:13px;font-family:Tahoma;-inkscape-font-specification:TahomaRegular;writing-mode:lr-tb;fill:#000000;fill-opacity:1;fill-rule:nonzero;stroke:none"
                 id="text569"><tspan
                   x="0 7 11"
                   y="0"
                   sodipodi:role="line"
                   id="tspan567">0.4</tspan></text>
            </g>
          </g>
          <g
             id="g571"
             transform="matrix(1.6669651,0,0,1.6666667,1821.9928,156.39211)">
            <g
               id="g573">
              <text
                 transform="translate(0,13)"
                 style="font-variant:normal;font-weight:normal;font-size:13px;font-family:Tahoma;-inkscape-font-specification:TahomaRegular;writing-mode:lr-tb;fill:#000000;fill-opacity:1;fill-rule:nonzero;stroke:none"
                 id="text577"><tspan
                   x="0 7 11"
                   y="0"
                   sodipodi:role="line"
                   id="tspan575">0.6</tspan></text>
            </g>
          </g>
          <g
             id="g579"
             transform="matrix(1.6669651,0,0,1.6666667,1821.9928,110.39333)">
            <g
               id="g581">
              <text
                 transform="translate(0,13)"
                 style="font-variant:normal;font-weight:normal;font-size:13px;font-family:Tahoma;-inkscape-font-specification:TahomaRegular;writing-mode:lr-tb;fill:#000000;fill-opacity:1;fill-rule:nonzero;stroke:none"
                 id="text585"><tspan
                   x="0 7 11"
                   y="0"
                   sodipodi:role="line"
                   id="tspan583">0.8</tspan></text>
            </g>
          </g>
          <g
             id="g587"
             transform="matrix(1.6669651,0,0,1.6666667,1821.9928,64.394552)">
            <g
               id="g589">
              <text
                 transform="translate(0.5,13)"
                 style="font-variant:normal;font-weight:normal;font-size:13px;font-family:Tahoma;-inkscape-font-specification:TahomaRegular;writing-mode:lr-tb;fill:#000000;fill-opacity:1;fill-rule:nonzero;stroke:none"
                 id="text593"><tspan
                   x="0"
                   y="0"
                   id="tspan591">1</tspan></text>
            </g>
          </g>
        </g>
      </g>
      <g
         id="g595">
        <g
           id="g597"
           transform="scale(1.6669651,1.6666667)" />
      </g>
      <g
         id="g599"
         transform="matrix(0.79104127,0,0,0.9958431,286.56344,-287.71659)">
        <g
           id="g601"
           clip-path="url(#clipPath605)">
          <g
             id="g607"
             transform="scale(1.6669651,1.6666667)">
            <path
               d="m 44,59 h 117 v 42 H 44 Z"
               style="fill:#ffffff;fill-opacity:1;fill-rule:nonzero;stroke:#000000;stroke-width:1;stroke-linecap:square;stroke-linejoin:bevel;stroke-miterlimit:10;stroke-dasharray:none;stroke-opacity:1"
               id="path609" />
          </g>
        </g>
      </g>
      <g
         id="g611">
        <g
           id="g613"
           transform="scale(1.6669651,1.6666667)" />
      </g>
      <g
         id="g615"
         transform="matrix(1.1012643,0,0,1,217.06646,-288.27084)">
        <g
           id="g617"
           clip-path="url(#clipPath621)">
          <g
             id="g623"
             transform="scale(1.6669651,1.6666667)">
            <g
               id="g625">
              <text
                 transform="translate(90,79)"
                 style="font-variant:normal;font-weight:normal;font-size:15px;font-family:Tahoma;-inkscape-font-specification:TahomaRegular;writing-mode:lr-tb;fill:#000000;fill-opacity:1;fill-rule:nonzero;stroke:none"
                 id="text629"><tspan
                   x="0 9 17 27 35 40"
                   y="0"
                   sodipodi:role="line"
                   id="tspan627">Reward</tspan></text>
            </g>
          </g>
        </g>
      </g>
      <g
         id="g631"
         transform="matrix(0.50663467,0,0,1,307.37313,-288.27084)">
        <g
           id="g633"
           clip-path="url(#clipPath637)">
          <g
             id="g639"
             clip-path="url(#clipPath643)">
            <g
               id="g645"
               transform="scale(1.6669651,1.6666667)">
              <path
                 d="M 51,73 H 88"
                 style="fill:none;stroke:#ffdc32;stroke-width:2;stroke-linecap:square;stroke-linejoin:bevel;stroke-miterlimit:10;stroke-dasharray:none;stroke-opacity:1"
                 id="path647" />
            </g>
          </g>
        </g>
      </g>
      <g
         id="g649">
        <g
           id="g651"
           transform="scale(1.6669651,1.6666667)" />
      </g>
      <g
         id="g653">
        <g
           id="g655"
           clip-path="url(#clipPath659)">
          <g
             id="g661"
             transform="scale(1.6669651,1.6666667)" />
          <g
             id="g663"
             transform="scale(1.6669651,1.6666667)" />
        </g>
      </g>
      <g
         id="g665">
        <g
           id="g667"
           transform="scale(1.6669651,1.6666667)" />
      </g>
      <g
         id="g669"
         transform="matrix(1.0128695,0,0,1,230.49102,-288.27084)">
        <g
           id="g671"
           clip-path="url(#clipPath675)">
          <g
             id="g677"
             transform="scale(1.6669651,1.6666667)">
            <g
               id="g679">
              <text
                 transform="translate(90,94)"
                 style="font-variant:normal;font-weight:normal;font-size:15px;font-family:Tahoma;-inkscape-font-specification:TahomaRegular;writing-mode:lr-tb;fill:#000000;fill-opacity:1;fill-rule:nonzero;stroke:none"
                 id="text683"><tspan
                   x="0 8 16 18 20 27 35 42 50 57"
                   y="0"
                   sodipodi:role="line"
                   id="tspan681">PolicyLoss</tspan></text>
            </g>
          </g>
        </g>
      </g>
      <g
         id="g685"
         transform="matrix(0.50663467,0,0,1,307.37313,-288.27084)">
        <g
           id="g687"
           clip-path="url(#clipPath691)">
          <g
             id="g693"
             clip-path="url(#clipPath697)">
            <g
               id="g699"
               transform="scale(1.6669651,1.6666667)" />
            <g
               id="g701">
              <g
                 id="g703">
                <path
                   d="m 85.015219,145 h 61.677711 1.66696 v 3.33333 H 146.69293 85.015219 83.348254 V 145 Z"
                   style="fill:#37dcfa;fill-opacity:0.698039;fill-rule:nonzero;stroke:none"
                   id="path705" />
              </g>
            </g>
          </g>
        </g>
      </g>
      <g
         id="g707">
        <g
           id="g709" />
      </g>
      <g
         id="g711">
        <g
           id="g713"
           clip-path="url(#clipPath717)">
          <g
             id="g719" />
          <g
             id="g721"
             transform="scale(1.6669651,1.6666667)" />
        </g>
      </g>
      <g
         id="g723">
        <g
           id="g725"
           transform="scale(1.6669651,1.6666667)" />
      </g>
      <g
         id="g727">
        <g
           id="g729"
           clip-path="url(#clipPath733)">
          <g
             id="g735"
             transform="scale(1.6669651,1.6666667)" />
        </g>
      </g>
      <g
         id="g737">
        <g
           id="g739"
           transform="scale(1.6669651,1.6666667)" />
      </g>
    </g>
  </g>
</svg>
